M48
; DRILL file {KiCad 8.0.4} date 2024-11-13T20:33:53+0100
; FORMAT={-:-/ absolute / inch / decimal}
; #@! TF.CreationDate,2024-11-13T20:33:53+01:00
; #@! TF.GenerationSoftware,Kicad,Pcbnew,8.0.4
; #@! TF.FileFunction,Plated,1,2,PTH
FMAT,2
INCH
; #@! TA.AperFunction,Plated,PTH,ComponentDrill
T1C0.0079
; #@! TA.AperFunction,Plated,PTH,ViaDrill
T2C0.0118
; #@! TA.AperFunction,Plated,PTH,ComponentDrill
T3C0.0157
; #@! TA.AperFunction,Plated,PTH,ComponentDrill
T4C0.0236
; #@! TA.AperFunction,Plated,PTH,ComponentDrill
T5C0.0394
; #@! TA.AperFunction,Plated,PTH,ComponentDrill
T6C0.0433
; #@! TA.AperFunction,Plated,PTH,ComponentDrill
T7C0.0512
; #@! TA.AperFunction,Plated,PTH,ComponentDrill
T8C0.0866
%
G90
G05
T1
X4.4943Y-2.5396
X4.4943Y-2.5997
X4.5244Y-2.5096
X4.5244Y-2.5696
X4.5244Y-2.6297
X4.5544Y-2.5396
X4.5544Y-2.5997
X4.5844Y-2.5096
X4.5844Y-2.5696
X4.5844Y-2.6297
X4.6144Y-2.5396
X4.6144Y-2.5997
T2
X2.2047Y-2.7756
X2.3622Y-1.3189
X2.3703Y-2.4919
X2.5197Y-2.3228
X2.6575Y-1.5748
X2.764Y-2.1966
X2.8428Y-1.7635
X2.9134Y-1.1614
X2.9331Y-2.0391
X3.0199Y-2.0391
X3.0512Y-3.4843
X3.061Y-1.6067
X3.189Y-1.1417
X3.189Y-2.1457
X3.248Y-3.6417
X3.3231Y-2.413
X3.3338Y-1.8337
X3.4252Y-1.5945
X3.4252Y-2.5
X3.4266Y-1.715
X3.4843Y-3.0906
X3.5236Y-1.1614
X3.5711Y-1.9998
X3.6024Y-2.5787
X3.6024Y-3.4646
X3.6105Y-1.8816
X3.6614Y-3.1693
X3.6614Y-3.5433
X3.6811Y-3.6417
X3.8976Y-3.3268
X3.937Y-1.2795
X3.9961Y-1.6535
X4.0239Y-2.5903
X4.0436Y-2.1966
X4.0829Y-2.1375
X4.142Y-3.358
X4.2404Y-2.8265
X4.2404Y-3.1612
X4.2913Y-1.6535
X4.32Y-2.0675
X4.3388Y-2.4722
X4.3504Y-1.2795
X4.3782Y-2.3541
X4.3935Y-3.1187
X4.4037Y-2.0685
X4.4684Y-2.7478
X4.5276Y-1.3583
X4.575Y-2.7872
X4.575Y-3.1809
X4.6063Y-1.5945
X4.7047Y-3.2087
X4.8031Y-3.878
X4.8228Y-1.3583
X4.8425Y-2.3622
X4.8425Y-2.8346
T3
X3.0947Y-1.2714
X3.0947Y-1.3246
X3.1282Y-1.2714
X3.1282Y-1.3246
X3.1617Y-1.2714
X3.1617Y-1.3246
X3.1951Y-1.2714
X3.1951Y-1.3246
X3.2286Y-1.2714
X3.2286Y-1.3246
X3.2621Y-1.2714
X3.2621Y-1.3246
X3.2955Y-1.2714
X3.2955Y-1.3246
X3.329Y-1.2714
X3.329Y-1.3246
T5
X2.0672Y-2.6001
X2.0672Y-2.6986
X2.0869Y-1.419
X2.0869Y-1.5175
T6
X2.2506Y-1.1708
X2.3506Y-1.1708
X2.4506Y-1.1708
T7
X2.4593Y-3.6336
X2.6593Y-3.6336
X2.8593Y-3.6336
X3.0593Y-3.6336
T8
X2.1341Y-4.0273
X2.6853Y-1.3305
X4.9294Y-4.0273
X4.9491Y-1.1336
T4
G00X3.0416Y-1.1687
M15
G01X3.0416Y-1.1372
M16
G05
G00X3.0416Y-1.3155
M15
G01X3.0416Y-1.2564
M16
G05
G00X3.3821Y-1.1687
M15
G01X3.3821Y-1.1372
M16
G05
G00X3.3821Y-1.3155
M15
G01X3.3821Y-1.2564
M16
G05
M30
