%TF.GenerationSoftware,KiCad,Pcbnew,8.0.4*%
%TF.CreationDate,2024-11-13T20:29:26+01:00*%
%TF.ProjectId,plant,706c616e-742e-46b6-9963-61645f706362,rev?*%
%TF.SameCoordinates,Original*%
%TF.FileFunction,Copper,L2,Bot*%
%TF.FilePolarity,Positive*%
%FSLAX46Y46*%
G04 Gerber Fmt 4.6, Leading zero omitted, Abs format (unit mm)*
G04 Created by KiCad (PCBNEW 8.0.4) date 2024-11-13 20:29:26*
%MOMM*%
%LPD*%
G01*
G04 APERTURE LIST*
G04 Aperture macros list*
%AMRoundRect*
0 Rectangle with rounded corners*
0 $1 Rounding radius*
0 $2 $3 $4 $5 $6 $7 $8 $9 X,Y pos of 4 corners*
0 Add a 4 corners polygon primitive as box body*
4,1,4,$2,$3,$4,$5,$6,$7,$8,$9,$2,$3,0*
0 Add four circle primitives for the rounded corners*
1,1,$1+$1,$2,$3*
1,1,$1+$1,$4,$5*
1,1,$1+$1,$6,$7*
1,1,$1+$1,$8,$9*
0 Add four rect primitives between the rounded corners*
20,1,$1+$1,$2,$3,$4,$5,0*
20,1,$1+$1,$4,$5,$6,$7,0*
20,1,$1+$1,$6,$7,$8,$9,0*
20,1,$1+$1,$8,$9,$2,$3,0*%
G04 Aperture macros list end*
%TA.AperFunction,ComponentPad*%
%ADD10C,3.800000*%
%TD*%
%TA.AperFunction,ComponentPad*%
%ADD11RoundRect,0.250000X-0.750000X0.600000X-0.750000X-0.600000X0.750000X-0.600000X0.750000X0.600000X0*%
%TD*%
%TA.AperFunction,ComponentPad*%
%ADD12O,2.000000X1.700000*%
%TD*%
%TA.AperFunction,ComponentPad*%
%ADD13R,1.905000X2.000000*%
%TD*%
%TA.AperFunction,ComponentPad*%
%ADD14O,1.905000X2.000000*%
%TD*%
%TA.AperFunction,HeatsinkPad*%
%ADD15C,0.600000*%
%TD*%
%TA.AperFunction,ComponentPad*%
%ADD16C,0.700000*%
%TD*%
%TA.AperFunction,ComponentPad*%
%ADD17O,0.900000X2.400000*%
%TD*%
%TA.AperFunction,ComponentPad*%
%ADD18O,0.900000X1.700000*%
%TD*%
%TA.AperFunction,ComponentPad*%
%ADD19R,2.600000X2.600000*%
%TD*%
%TA.AperFunction,ComponentPad*%
%ADD20C,2.600000*%
%TD*%
%TA.AperFunction,ViaPad*%
%ADD21C,0.600000*%
%TD*%
%TA.AperFunction,Conductor*%
%ADD22C,0.200000*%
%TD*%
%TA.AperFunction,Conductor*%
%ADD23C,0.300000*%
%TD*%
G04 APERTURE END LIST*
D10*
%TO.P,H3,1,1*%
%TO.N,unconnected-(H3-Pad1)*%
X54206250Y-102293750D03*
%TD*%
%TO.P,H2,1,1*%
%TO.N,unconnected-(H2-Pad1)*%
X125706250Y-28793750D03*
%TD*%
D11*
%TO.P,J3,1,Pin_1*%
%TO.N,Net-(J3-Pin_1)*%
X53006250Y-36043750D03*
D12*
%TO.P,J3,2,Pin_2*%
%TO.N,GND*%
X53006250Y-38543750D03*
%TD*%
D10*
%TO.P,H4,1,1*%
%TO.N,unconnected-(H4-Pad1)*%
X125206250Y-102293750D03*
%TD*%
D11*
%TO.P,J2,1,Pin_1*%
%TO.N,Net-(J2-Pin_1)*%
X52506250Y-66043750D03*
D12*
%TO.P,J2,2,Pin_2*%
%TO.N,GND*%
X52506250Y-68543750D03*
%TD*%
D10*
%TO.P,H1,1,1*%
%TO.N,unconnected-(H1-Pad1)*%
X68206250Y-33793750D03*
%TD*%
D13*
%TO.P,U7,1,VI*%
%TO.N,Net-(J3-Pin_1)*%
X57166250Y-29738750D03*
D14*
%TO.P,U7,2,GND*%
%TO.N,GND*%
X59706250Y-29738750D03*
%TO.P,U7,3,VO*%
%TO.N,+5V_cell*%
X62246250Y-29738750D03*
%TD*%
D15*
%TO.P,U3,39,GND*%
%TO.N,GND*%
X116443750Y-63743750D03*
X114918750Y-63743750D03*
X117206250Y-64506250D03*
X115681250Y-64506250D03*
X114156250Y-64506250D03*
X116443750Y-65268750D03*
X114918750Y-65268750D03*
X117206250Y-66031250D03*
X115681250Y-66031250D03*
X114156250Y-66031250D03*
X116443750Y-66793750D03*
X114918750Y-66793750D03*
%TD*%
D16*
%TO.P,J1,A1,GND*%
%TO.N,GND*%
X84556250Y-33643750D03*
%TO.P,J1,A4,VBUS*%
%TO.N,+5V_USB*%
X83706250Y-33643750D03*
%TO.P,J1,A5,CC1*%
%TO.N,Net-(J1-CC1)*%
X82856250Y-33643750D03*
%TO.P,J1,A6,D+*%
%TO.N,Net-(J1-D+-PadA6)*%
X82006250Y-33643750D03*
%TO.P,J1,A7,D-*%
%TO.N,Net-(J1-D--PadA7)*%
X81156250Y-33643750D03*
%TO.P,J1,A8,SBU1*%
%TO.N,unconnected-(J1-SBU1-PadA8)*%
X80306250Y-33643750D03*
%TO.P,J1,A9,VBUS*%
%TO.N,+5V_USB*%
X79456250Y-33643750D03*
%TO.P,J1,A12,GND*%
%TO.N,GND*%
X78606250Y-33643750D03*
%TO.P,J1,B1,GND*%
X78606250Y-32293750D03*
%TO.P,J1,B4,VBUS*%
%TO.N,+5V_USB*%
X79456250Y-32293750D03*
%TO.P,J1,B5,CC2*%
%TO.N,Net-(J1-CC2)*%
X80306250Y-32293750D03*
%TO.P,J1,B6,D+*%
%TO.N,Net-(J1-D+-PadA6)*%
X81156250Y-32293750D03*
%TO.P,J1,B7,D-*%
%TO.N,Net-(J1-D--PadA7)*%
X82006250Y-32293750D03*
%TO.P,J1,B8,SBU2*%
%TO.N,unconnected-(J1-SBU2-PadB8)*%
X82856250Y-32293750D03*
%TO.P,J1,B9,VBUS*%
%TO.N,+5V_USB*%
X83706250Y-32293750D03*
%TO.P,J1,B12,GND*%
%TO.N,GND*%
X84556250Y-32293750D03*
D17*
%TO.P,J1,S1,SHIELD*%
X85906250Y-32663750D03*
D18*
X85906250Y-29283750D03*
D17*
X77256250Y-32663750D03*
D18*
X77256250Y-29283750D03*
%TD*%
D19*
%TO.P,J4,1,Pin_1*%
%TO.N,+3.3V*%
X62466250Y-92293750D03*
D20*
%TO.P,J4,2,Pin_2*%
%TO.N,SDA*%
X67546250Y-92293750D03*
%TO.P,J4,3,Pin_3*%
%TO.N,SCL*%
X72626250Y-92293750D03*
%TO.P,J4,4,Pin_4*%
%TO.N,GND*%
X77706250Y-92293750D03*
%TD*%
D21*
%TO.N,GND*%
X93000000Y-90000000D03*
X64000000Y-59000000D03*
X122000000Y-98500000D03*
X91500000Y-65500000D03*
X115000000Y-34500000D03*
X123000000Y-60000000D03*
X87000000Y-40500000D03*
X56000000Y-70500000D03*
X123000000Y-72000000D03*
X74000000Y-29500000D03*
X117000000Y-40500000D03*
X89500000Y-29500000D03*
X82500000Y-92500000D03*
X109000000Y-42000000D03*
X87000000Y-63500000D03*
X88500000Y-78500000D03*
X84407142Y-61290659D03*
X101500000Y-42000000D03*
X110500000Y-32500000D03*
X100000000Y-32500000D03*
X93000000Y-80500000D03*
X119500000Y-81500000D03*
X93500000Y-92500000D03*
X81000000Y-29000000D03*
X60000000Y-33500000D03*
X122500000Y-34500000D03*
X81000000Y-54500000D03*
X77500000Y-88500000D03*
X67500000Y-40000000D03*
X91500000Y-88000000D03*
X99000000Y-84500000D03*
%TO.N,Net-(J2-Pin_1)*%
X70206250Y-55793750D03*
X60206250Y-63293750D03*
%TO.N,+3.3V*%
X72206250Y-44793750D03*
X77750535Y-40809574D03*
%TO.N,DTR*%
X103706250Y-54293750D03*
X87034793Y-43561854D03*
%TO.N,RTS*%
X84679711Y-46576359D03*
X102706250Y-55793750D03*
%TO.N,rst*%
X105206250Y-85293750D03*
X102206250Y-65793750D03*
%TO.N,DIO0*%
X107706250Y-80293750D03*
X107706250Y-71793750D03*
%TO.N,CS*%
X116206250Y-80793750D03*
X111594331Y-79214037D03*
%TO.N,RX*%
X113498235Y-69793777D03*
X91706250Y-47793750D03*
%TO.N,TX*%
X116206250Y-70793750D03*
X90706250Y-50793750D03*
%TO.N,TX_GPS*%
X111854413Y-52540531D03*
X111206250Y-59793750D03*
%TO.N,RX_GPS*%
X109728110Y-52513616D03*
X110206250Y-62793750D03*
%TO.N,Net-(U6-THERM)*%
X74500000Y-51793750D03*
X76706250Y-51793750D03*
%TD*%
D22*
%TO.N,+5V_USB*%
X83706250Y-33643750D02*
X83706250Y-34138724D01*
X83551224Y-34293750D02*
X80037011Y-34293750D01*
X79456250Y-33712989D02*
X79456250Y-33643750D01*
X80037011Y-34293750D02*
X79456250Y-33712989D01*
X83706250Y-34138724D02*
X83551224Y-34293750D01*
%TO.N,Net-(J2-Pin_1)*%
X70206250Y-55793750D02*
X62706250Y-63293750D01*
X62706250Y-63293750D02*
X60206250Y-63293750D01*
D23*
%TO.N,+3.3V*%
X74690426Y-40809574D02*
X72206250Y-43293750D01*
X77750535Y-40809574D02*
X74690426Y-40809574D01*
X72206250Y-43293750D02*
X72206250Y-44793750D01*
D22*
%TO.N,DTR*%
X103706250Y-54293750D02*
X92974354Y-43561854D01*
X92974354Y-43561854D02*
X87034793Y-43561854D01*
%TO.N,RTS*%
X102706250Y-55793750D02*
X93488859Y-46576359D01*
X93488859Y-46576359D02*
X84679711Y-46576359D01*
%TO.N,rst*%
X105206250Y-73617376D02*
X102206250Y-70617376D01*
X102206250Y-70617376D02*
X102206250Y-65793750D01*
X105206250Y-85293750D02*
X105206250Y-73617376D01*
%TO.N,DIO0*%
X107706250Y-80293750D02*
X107706250Y-71793750D01*
%TO.N,CS*%
X113174044Y-80793750D02*
X111594331Y-79214037D01*
X116206250Y-80793750D02*
X113174044Y-80793750D01*
%TO.N,RX*%
X112998208Y-69085708D02*
X91706250Y-47793750D01*
X113498235Y-69793777D02*
X112998208Y-69293750D01*
X112998208Y-69293750D02*
X112998208Y-69085708D01*
%TO.N,TX*%
X110706250Y-70793750D02*
X116206250Y-70793750D01*
X90706250Y-50793750D02*
X110706250Y-70793750D01*
%TO.N,TX_GPS*%
X111854413Y-52540531D02*
X111854413Y-59145587D01*
X111854413Y-59145587D02*
X111206250Y-59793750D01*
%TO.N,RX_GPS*%
X109206250Y-53035476D02*
X109206250Y-61793750D01*
X109728110Y-52513616D02*
X109206250Y-53035476D01*
X109206250Y-61793750D02*
X110206250Y-62793750D01*
%TO.N,Net-(J1-D+-PadA6)*%
X82006250Y-33212989D02*
X81156250Y-32362989D01*
X81156250Y-32362989D02*
X81156250Y-32293750D01*
X82006250Y-33643750D02*
X82006250Y-33212989D01*
%TO.N,Net-(U6-THERM)*%
X74500000Y-51793750D02*
X76706250Y-51793750D01*
%TD*%
M02*
