%TF.GenerationSoftware,KiCad,Pcbnew,8.0.4*%
%TF.CreationDate,2024-11-13T20:29:26+01:00*%
%TF.ProjectId,plant,706c616e-742e-46b6-9963-61645f706362,rev?*%
%TF.SameCoordinates,Original*%
%TF.FileFunction,Soldermask,Top*%
%TF.FilePolarity,Negative*%
%FSLAX46Y46*%
G04 Gerber Fmt 4.6, Leading zero omitted, Abs format (unit mm)*
G04 Created by KiCad (PCBNEW 8.0.4) date 2024-11-13 20:29:26*
%MOMM*%
%LPD*%
G01*
G04 APERTURE LIST*
G04 Aperture macros list*
%AMRoundRect*
0 Rectangle with rounded corners*
0 $1 Rounding radius*
0 $2 $3 $4 $5 $6 $7 $8 $9 X,Y pos of 4 corners*
0 Add a 4 corners polygon primitive as box body*
4,1,4,$2,$3,$4,$5,$6,$7,$8,$9,$2,$3,0*
0 Add four circle primitives for the rounded corners*
1,1,$1+$1,$2,$3*
1,1,$1+$1,$4,$5*
1,1,$1+$1,$6,$7*
1,1,$1+$1,$8,$9*
0 Add four rect primitives between the rounded corners*
20,1,$1+$1,$2,$3,$4,$5,0*
20,1,$1+$1,$4,$5,$6,$7,0*
20,1,$1+$1,$6,$7,$8,$9,0*
20,1,$1+$1,$8,$9,$2,$3,0*%
G04 Aperture macros list end*
%ADD10R,1.512799X0.330200*%
%ADD11R,0.990600X2.006600*%
%ADD12C,1.193800*%
%ADD13RoundRect,0.225000X-0.225000X-0.375000X0.225000X-0.375000X0.225000X0.375000X-0.225000X0.375000X0*%
%ADD14C,3.800000*%
%ADD15RoundRect,0.237500X-0.250000X-0.237500X0.250000X-0.237500X0.250000X0.237500X-0.250000X0.237500X0*%
%ADD16RoundRect,0.250000X0.350000X0.450000X-0.350000X0.450000X-0.350000X-0.450000X0.350000X-0.450000X0*%
%ADD17RoundRect,0.250000X-0.250000X0.275000X-0.250000X-0.275000X0.250000X-0.275000X0.250000X0.275000X0*%
%ADD18RoundRect,0.250000X-0.275000X0.850000X-0.275000X-0.850000X0.275000X-0.850000X0.275000X0.850000X0*%
%ADD19R,0.900000X1.000000*%
%ADD20R,0.800000X0.400000*%
%ADD21RoundRect,0.237500X0.237500X-0.250000X0.237500X0.250000X-0.237500X0.250000X-0.237500X-0.250000X0*%
%ADD22RoundRect,0.155000X0.212500X0.155000X-0.212500X0.155000X-0.212500X-0.155000X0.212500X-0.155000X0*%
%ADD23RoundRect,0.250000X-0.750000X0.600000X-0.750000X-0.600000X0.750000X-0.600000X0.750000X0.600000X0*%
%ADD24O,2.000000X1.700000*%
%ADD25RoundRect,0.237500X-0.237500X0.250000X-0.237500X-0.250000X0.237500X-0.250000X0.237500X0.250000X0*%
%ADD26RoundRect,0.218750X-0.218750X-0.381250X0.218750X-0.381250X0.218750X0.381250X-0.218750X0.381250X0*%
%ADD27RoundRect,0.375000X-0.375000X0.625000X-0.375000X-0.625000X0.375000X-0.625000X0.375000X0.625000X0*%
%ADD28RoundRect,0.500000X-1.400000X0.500000X-1.400000X-0.500000X1.400000X-0.500000X1.400000X0.500000X0*%
%ADD29R,1.400000X1.600000*%
%ADD30RoundRect,0.250000X-0.337500X-0.475000X0.337500X-0.475000X0.337500X0.475000X-0.337500X0.475000X0*%
%ADD31RoundRect,0.062500X-0.062500X0.350000X-0.062500X-0.350000X0.062500X-0.350000X0.062500X0.350000X0*%
%ADD32RoundRect,0.062500X-0.350000X0.062500X-0.350000X-0.062500X0.350000X-0.062500X0.350000X0.062500X0*%
%ADD33R,2.600000X2.600000*%
%ADD34RoundRect,0.093750X0.093750X-0.156250X0.093750X0.156250X-0.093750X0.156250X-0.093750X-0.156250X0*%
%ADD35RoundRect,0.075000X0.075000X-0.250000X0.075000X0.250000X-0.075000X0.250000X-0.075000X-0.250000X0*%
%ADD36RoundRect,0.155000X-0.212500X-0.155000X0.212500X-0.155000X0.212500X0.155000X-0.212500X0.155000X0*%
%ADD37RoundRect,0.250000X0.337500X0.475000X-0.337500X0.475000X-0.337500X-0.475000X0.337500X-0.475000X0*%
%ADD38RoundRect,0.100500X-0.986500X-0.301500X0.986500X-0.301500X0.986500X0.301500X-0.986500X0.301500X0*%
%ADD39RoundRect,0.100000X0.100000X-0.225000X0.100000X0.225000X-0.100000X0.225000X-0.100000X-0.225000X0*%
%ADD40RoundRect,0.155000X0.155000X-0.212500X0.155000X0.212500X-0.155000X0.212500X-0.155000X-0.212500X0*%
%ADD41R,2.000000X1.500000*%
%ADD42RoundRect,0.237500X0.250000X0.237500X-0.250000X0.237500X-0.250000X-0.237500X0.250000X-0.237500X0*%
%ADD43R,1.905000X2.000000*%
%ADD44O,1.905000X2.000000*%
%ADD45RoundRect,0.250000X0.475000X-0.337500X0.475000X0.337500X-0.475000X0.337500X-0.475000X-0.337500X0*%
%ADD46R,0.900000X1.500000*%
%ADD47R,1.500000X0.900000*%
%ADD48C,0.600000*%
%ADD49R,4.200000X4.200000*%
%ADD50RoundRect,0.155000X-0.155000X0.212500X-0.155000X-0.212500X0.155000X-0.212500X0.155000X0.212500X0*%
%ADD51C,0.700000*%
%ADD52O,0.900000X2.400000*%
%ADD53O,0.900000X1.700000*%
%ADD54C,2.600000*%
%ADD55RoundRect,0.250000X-0.350000X-0.450000X0.350000X-0.450000X0.350000X0.450000X-0.350000X0.450000X0*%
%ADD56RoundRect,0.100000X-0.100000X0.130000X-0.100000X-0.130000X0.100000X-0.130000X0.100000X0.130000X0*%
G04 APERTURE END LIST*
%TO.C,J5*%
G36*
X119646250Y-33278750D02*
G01*
X117766250Y-33278750D01*
X117766250Y-35368750D01*
X119646250Y-35368750D01*
X119646250Y-33278750D01*
G37*
%TD*%
D10*
%TO.C,U6*%
X68161550Y-51293749D03*
X68161550Y-51793751D03*
X68161550Y-52293750D03*
X68161550Y-52793749D03*
X68161550Y-53293751D03*
X72250950Y-53293751D03*
X72250950Y-52793749D03*
X72250950Y-52293750D03*
X72250950Y-51793751D03*
X72250950Y-51293749D03*
%TD*%
D11*
%TO.C,U4*%
X98456251Y-44793750D03*
X99956250Y-44793750D03*
X101456250Y-44793750D03*
X102956249Y-44793750D03*
X104456249Y-44793750D03*
X105956248Y-44793750D03*
X107456251Y-44793750D03*
X108956250Y-44793750D03*
X110456250Y-44793750D03*
X111956249Y-44793750D03*
X111956249Y-29193750D03*
X110456250Y-29193750D03*
X108956250Y-29193750D03*
X107456251Y-29193750D03*
X105956251Y-29193750D03*
X104456252Y-29193750D03*
X102956249Y-29193750D03*
X101456250Y-29193750D03*
X99956250Y-29193750D03*
X98456251Y-29193750D03*
D12*
X104756250Y-36993750D03*
%TD*%
D13*
%TO.C,D2*%
X54350000Y-47500000D03*
X57650000Y-47500000D03*
%TD*%
D14*
%TO.C,H3*%
X54206250Y-102293750D03*
%TD*%
D15*
%TO.C,R10*%
X58881250Y-50793750D03*
X60706250Y-50793750D03*
%TD*%
D14*
%TO.C,H2*%
X125706250Y-28793750D03*
%TD*%
D16*
%TO.C,R1*%
X121706250Y-53793750D03*
X119706250Y-53793750D03*
%TD*%
D17*
%TO.C,J5*%
X118706250Y-32743750D03*
D18*
X120181250Y-34268750D03*
X117231250Y-34268750D03*
%TD*%
D19*
%TO.C,D3*%
X54206250Y-54293750D03*
X54206250Y-51293750D03*
D20*
X54656250Y-52393750D03*
X54656250Y-53193750D03*
%TD*%
D21*
%TO.C,R14*%
X99206250Y-72206250D03*
X99206250Y-70381250D03*
%TD*%
D22*
%TO.C,C11*%
X72273750Y-47793750D03*
X71138750Y-47793750D03*
%TD*%
D23*
%TO.C,J3*%
X53006250Y-36043750D03*
D24*
X53006250Y-38543750D03*
%TD*%
D25*
%TO.C,R6*%
X75206250Y-44968750D03*
X75206250Y-46793750D03*
%TD*%
D26*
%TO.C,FB1*%
X104643750Y-48293750D03*
X106768750Y-48293750D03*
%TD*%
D22*
%TO.C,C6*%
X101773750Y-50793750D03*
X100638750Y-50793750D03*
%TD*%
D15*
%TO.C,R7*%
X87706250Y-45293750D03*
X89531250Y-45293750D03*
%TD*%
D25*
%TO.C,R15*%
X99206250Y-65881250D03*
X99206250Y-67706250D03*
%TD*%
D27*
%TO.C,U8*%
X83006250Y-64143750D03*
X80706250Y-64143750D03*
D28*
X80706250Y-70443750D03*
D27*
X78406250Y-64143750D03*
%TD*%
D29*
%TO.C,SW3*%
X96456250Y-76793750D03*
X96456250Y-84793750D03*
X91956250Y-76793750D03*
X91956250Y-84793750D03*
%TD*%
D30*
%TO.C,C15*%
X62168750Y-39793750D03*
X64243750Y-39793750D03*
%TD*%
D31*
%TO.C,U1*%
X81456250Y-42356250D03*
X80956250Y-42356250D03*
X80456250Y-42356250D03*
X79956250Y-42356250D03*
X79456250Y-42356250D03*
X78956250Y-42356250D03*
D32*
X78268750Y-43043750D03*
X78268750Y-43543750D03*
X78268750Y-44043750D03*
X78268750Y-44543750D03*
X78268750Y-45043750D03*
X78268750Y-45543750D03*
D31*
X78956250Y-46231250D03*
X79456250Y-46231250D03*
X79956250Y-46231250D03*
X80456250Y-46231250D03*
X80956250Y-46231250D03*
X81456250Y-46231250D03*
D32*
X82143750Y-45543750D03*
X82143750Y-45043750D03*
X82143750Y-44543750D03*
X82143750Y-44043750D03*
X82143750Y-43543750D03*
X82143750Y-43043750D03*
D33*
X80206250Y-44293750D03*
%TD*%
D22*
%TO.C,C12*%
X80273750Y-48793750D03*
X79138750Y-48793750D03*
%TD*%
D34*
%TO.C,U5*%
X80168750Y-39568750D03*
D35*
X80706250Y-39643750D03*
D34*
X81243750Y-39568750D03*
X81243750Y-37868750D03*
D35*
X80706250Y-37793750D03*
D34*
X80168750Y-37868750D03*
%TD*%
D36*
%TO.C,C17*%
X80571250Y-61293750D03*
X81706250Y-61293750D03*
%TD*%
D22*
%TO.C,C7*%
X105706250Y-79793750D03*
X104571250Y-79793750D03*
%TD*%
D37*
%TO.C,C8*%
X106243750Y-77293750D03*
X104168750Y-77293750D03*
%TD*%
D38*
%TO.C,Q2*%
X59731250Y-64888750D03*
X59731250Y-66158750D03*
X59731250Y-67428750D03*
X59731250Y-68698750D03*
X64681250Y-68698750D03*
X64681250Y-67428750D03*
X64681250Y-66158750D03*
X64681250Y-64888750D03*
%TD*%
D39*
%TO.C,Q1*%
X105556250Y-54693750D03*
X106206250Y-54693750D03*
X106856250Y-54693750D03*
X106856250Y-52793750D03*
X106206250Y-52793750D03*
X105556250Y-52793750D03*
%TD*%
D40*
%TO.C,C16*%
X75706250Y-64428750D03*
X75706250Y-63293750D03*
%TD*%
D14*
%TO.C,H4*%
X125206250Y-102293750D03*
%TD*%
D41*
%TO.C,U2*%
X102206250Y-84293750D03*
X102206250Y-86293750D03*
X102206250Y-88293750D03*
X102206250Y-90293750D03*
X102206250Y-92293750D03*
X102206250Y-94293750D03*
X102206250Y-96293750D03*
X102206250Y-98293750D03*
X118206250Y-98293750D03*
X118206250Y-96293750D03*
X118206250Y-94293750D03*
X118206250Y-92293750D03*
X118206250Y-90293750D03*
X118206250Y-88293750D03*
X118206250Y-86293750D03*
X118206250Y-84293750D03*
%TD*%
D23*
%TO.C,J2*%
X52506250Y-66043750D03*
D24*
X52506250Y-68543750D03*
%TD*%
D15*
%TO.C,R11*%
X58881250Y-56793750D03*
X60706250Y-56793750D03*
%TD*%
D14*
%TO.C,H1*%
X68206250Y-33793750D03*
%TD*%
D21*
%TO.C,R2*%
X109706250Y-50706250D03*
X109706250Y-48881250D03*
%TD*%
D29*
%TO.C,SW4*%
X116956250Y-51293750D03*
X116956250Y-43293750D03*
X121456250Y-51293750D03*
X121456250Y-43293750D03*
%TD*%
D37*
%TO.C,C1*%
X98243750Y-88793750D03*
X96168750Y-88793750D03*
%TD*%
D22*
%TO.C,C2*%
X97773750Y-92293750D03*
X96638750Y-92293750D03*
%TD*%
D37*
%TO.C,C5*%
X101743750Y-48293750D03*
X99668750Y-48293750D03*
%TD*%
D42*
%TO.C,R4*%
X87118750Y-36293750D03*
X85293750Y-36293750D03*
%TD*%
D22*
%TO.C,C3*%
X117773750Y-53793750D03*
X116638750Y-53793750D03*
%TD*%
D13*
%TO.C,D1*%
X54350000Y-44500000D03*
X57650000Y-44500000D03*
%TD*%
D21*
%TO.C,R3*%
X112706250Y-50706250D03*
X112706250Y-48881250D03*
%TD*%
D43*
%TO.C,U7*%
X57166250Y-29738750D03*
D44*
X59706250Y-29738750D03*
X62246250Y-29738750D03*
%TD*%
D45*
%TO.C,C4*%
X86871963Y-68285095D03*
X86871963Y-66210095D03*
%TD*%
D46*
%TO.C,U3*%
X123021250Y-57198750D03*
X121751250Y-57198750D03*
X120481250Y-57198750D03*
X119211250Y-57198750D03*
X117941250Y-57198750D03*
X116671250Y-57198750D03*
X115401250Y-57198750D03*
X114131250Y-57198750D03*
X112861250Y-57198750D03*
X111591250Y-57198750D03*
X110321250Y-57198750D03*
X109051250Y-57198750D03*
X107781250Y-57198750D03*
X106511250Y-57198750D03*
D47*
X105261250Y-60238750D03*
X105261250Y-61508750D03*
X105261250Y-62778750D03*
X105261250Y-64048750D03*
X105261250Y-65318750D03*
X105261250Y-66588750D03*
X105261250Y-67858750D03*
X105261250Y-69128750D03*
X105261250Y-70398750D03*
X105261250Y-71668750D03*
D46*
X106511250Y-74698750D03*
X107781250Y-74698750D03*
X109051250Y-74698750D03*
X110321250Y-74698750D03*
X111591250Y-74698750D03*
X112861250Y-74698750D03*
X114131250Y-74698750D03*
X115401250Y-74698750D03*
X116671250Y-74698750D03*
X117941250Y-74698750D03*
X119211250Y-74698750D03*
X120481250Y-74698750D03*
X121751250Y-74698750D03*
X123021250Y-74698750D03*
D48*
X116443750Y-63743750D03*
X114918750Y-63743750D03*
X117206250Y-64506250D03*
X115681250Y-64506250D03*
X114156250Y-64506250D03*
X116443750Y-65268750D03*
D49*
X115681250Y-65268750D03*
D48*
X114918750Y-65268750D03*
X117206250Y-66031250D03*
X115681250Y-66031250D03*
X114156250Y-66031250D03*
X116443750Y-66793750D03*
X114918750Y-66793750D03*
%TD*%
D15*
%TO.C,R9*%
X58881250Y-53793750D03*
X60706250Y-53793750D03*
%TD*%
D22*
%TO.C,C10*%
X75841250Y-39293750D03*
X74706250Y-39293750D03*
%TD*%
D50*
%TO.C,C13*%
X57206250Y-36726250D03*
X57206250Y-37861250D03*
%TD*%
D15*
%TO.C,R5*%
X85293750Y-38293750D03*
X87118750Y-38293750D03*
%TD*%
%TO.C,R8*%
X87793750Y-48293750D03*
X89618750Y-48293750D03*
%TD*%
D51*
%TO.C,J1*%
X84556250Y-33643750D03*
X83706250Y-33643750D03*
X82856250Y-33643750D03*
X82006250Y-33643750D03*
X81156250Y-33643750D03*
X80306250Y-33643750D03*
X79456250Y-33643750D03*
X78606250Y-33643750D03*
X78606250Y-32293750D03*
X79456250Y-32293750D03*
X80306250Y-32293750D03*
X81156250Y-32293750D03*
X82006250Y-32293750D03*
X82856250Y-32293750D03*
X83706250Y-32293750D03*
X84556250Y-32293750D03*
D52*
X85906250Y-32663750D03*
D53*
X85906250Y-29283750D03*
D52*
X77256250Y-32663750D03*
D53*
X77256250Y-29283750D03*
%TD*%
D33*
%TO.C,J4*%
X62466250Y-92293750D03*
D54*
X67546250Y-92293750D03*
X72626250Y-92293750D03*
X77706250Y-92293750D03*
%TD*%
D22*
%TO.C,C9*%
X75841250Y-37793750D03*
X74706250Y-37793750D03*
%TD*%
D55*
%TO.C,R13*%
X78706250Y-51793750D03*
X80706250Y-51793750D03*
%TD*%
D56*
%TO.C,D4*%
X75706250Y-66973750D03*
X75706250Y-67613750D03*
%TD*%
D55*
%TO.C,R12*%
X59706250Y-60293750D03*
X61706250Y-60293750D03*
%TD*%
M02*
