%TF.GenerationSoftware,KiCad,Pcbnew,8.0.4*%
%TF.CreationDate,2024-11-13T20:29:26+01:00*%
%TF.ProjectId,plant,706c616e-742e-46b6-9963-61645f706362,rev?*%
%TF.SameCoordinates,Original*%
%TF.FileFunction,Legend,Top*%
%TF.FilePolarity,Positive*%
%FSLAX46Y46*%
G04 Gerber Fmt 4.6, Leading zero omitted, Abs format (unit mm)*
G04 Created by KiCad (PCBNEW 8.0.4) date 2024-11-13 20:29:26*
%MOMM*%
%LPD*%
G01*
G04 APERTURE LIST*
%ADD10C,0.200000*%
%ADD11C,0.150000*%
%ADD12C,0.000000*%
%ADD13C,0.152400*%
%ADD14C,0.120000*%
%ADD15C,0.127000*%
%ADD16C,0.100000*%
G04 APERTURE END LIST*
D10*
X94414838Y-39106517D02*
X94367219Y-39201755D01*
X94367219Y-39201755D02*
X94367219Y-39344612D01*
X94367219Y-39344612D02*
X94414838Y-39487469D01*
X94414838Y-39487469D02*
X94510076Y-39582707D01*
X94510076Y-39582707D02*
X94605314Y-39630326D01*
X94605314Y-39630326D02*
X94795790Y-39677945D01*
X94795790Y-39677945D02*
X94938647Y-39677945D01*
X94938647Y-39677945D02*
X95129123Y-39630326D01*
X95129123Y-39630326D02*
X95224361Y-39582707D01*
X95224361Y-39582707D02*
X95319600Y-39487469D01*
X95319600Y-39487469D02*
X95367219Y-39344612D01*
X95367219Y-39344612D02*
X95367219Y-39249374D01*
X95367219Y-39249374D02*
X95319600Y-39106517D01*
X95319600Y-39106517D02*
X95271980Y-39058898D01*
X95271980Y-39058898D02*
X94938647Y-39058898D01*
X94938647Y-39058898D02*
X94938647Y-39249374D01*
X95367219Y-38630326D02*
X94367219Y-38630326D01*
X94367219Y-38630326D02*
X94367219Y-38249374D01*
X94367219Y-38249374D02*
X94414838Y-38154136D01*
X94414838Y-38154136D02*
X94462457Y-38106517D01*
X94462457Y-38106517D02*
X94557695Y-38058898D01*
X94557695Y-38058898D02*
X94700552Y-38058898D01*
X94700552Y-38058898D02*
X94795790Y-38106517D01*
X94795790Y-38106517D02*
X94843409Y-38154136D01*
X94843409Y-38154136D02*
X94891028Y-38249374D01*
X94891028Y-38249374D02*
X94891028Y-38630326D01*
X95319600Y-37677945D02*
X95367219Y-37535088D01*
X95367219Y-37535088D02*
X95367219Y-37296993D01*
X95367219Y-37296993D02*
X95319600Y-37201755D01*
X95319600Y-37201755D02*
X95271980Y-37154136D01*
X95271980Y-37154136D02*
X95176742Y-37106517D01*
X95176742Y-37106517D02*
X95081504Y-37106517D01*
X95081504Y-37106517D02*
X94986266Y-37154136D01*
X94986266Y-37154136D02*
X94938647Y-37201755D01*
X94938647Y-37201755D02*
X94891028Y-37296993D01*
X94891028Y-37296993D02*
X94843409Y-37487469D01*
X94843409Y-37487469D02*
X94795790Y-37582707D01*
X94795790Y-37582707D02*
X94748171Y-37630326D01*
X94748171Y-37630326D02*
X94652933Y-37677945D01*
X94652933Y-37677945D02*
X94557695Y-37677945D01*
X94557695Y-37677945D02*
X94462457Y-37630326D01*
X94462457Y-37630326D02*
X94414838Y-37582707D01*
X94414838Y-37582707D02*
X94367219Y-37487469D01*
X94367219Y-37487469D02*
X94367219Y-37249374D01*
X94367219Y-37249374D02*
X94414838Y-37106517D01*
X95367219Y-35916040D02*
X94367219Y-35916040D01*
X94367219Y-35916040D02*
X95081504Y-35582707D01*
X95081504Y-35582707D02*
X94367219Y-35249374D01*
X94367219Y-35249374D02*
X95367219Y-35249374D01*
X95367219Y-34630326D02*
X95319600Y-34725564D01*
X95319600Y-34725564D02*
X95271980Y-34773183D01*
X95271980Y-34773183D02*
X95176742Y-34820802D01*
X95176742Y-34820802D02*
X94891028Y-34820802D01*
X94891028Y-34820802D02*
X94795790Y-34773183D01*
X94795790Y-34773183D02*
X94748171Y-34725564D01*
X94748171Y-34725564D02*
X94700552Y-34630326D01*
X94700552Y-34630326D02*
X94700552Y-34487469D01*
X94700552Y-34487469D02*
X94748171Y-34392231D01*
X94748171Y-34392231D02*
X94795790Y-34344612D01*
X94795790Y-34344612D02*
X94891028Y-34296993D01*
X94891028Y-34296993D02*
X95176742Y-34296993D01*
X95176742Y-34296993D02*
X95271980Y-34344612D01*
X95271980Y-34344612D02*
X95319600Y-34392231D01*
X95319600Y-34392231D02*
X95367219Y-34487469D01*
X95367219Y-34487469D02*
X95367219Y-34630326D01*
X95367219Y-33439850D02*
X94367219Y-33439850D01*
X95319600Y-33439850D02*
X95367219Y-33535088D01*
X95367219Y-33535088D02*
X95367219Y-33725564D01*
X95367219Y-33725564D02*
X95319600Y-33820802D01*
X95319600Y-33820802D02*
X95271980Y-33868421D01*
X95271980Y-33868421D02*
X95176742Y-33916040D01*
X95176742Y-33916040D02*
X94891028Y-33916040D01*
X94891028Y-33916040D02*
X94795790Y-33868421D01*
X94795790Y-33868421D02*
X94748171Y-33820802D01*
X94748171Y-33820802D02*
X94700552Y-33725564D01*
X94700552Y-33725564D02*
X94700552Y-33535088D01*
X94700552Y-33535088D02*
X94748171Y-33439850D01*
X94700552Y-32535088D02*
X95367219Y-32535088D01*
X94700552Y-32963659D02*
X95224361Y-32963659D01*
X95224361Y-32963659D02*
X95319600Y-32916040D01*
X95319600Y-32916040D02*
X95367219Y-32820802D01*
X95367219Y-32820802D02*
X95367219Y-32677945D01*
X95367219Y-32677945D02*
X95319600Y-32582707D01*
X95319600Y-32582707D02*
X95271980Y-32535088D01*
X95367219Y-31916040D02*
X95319600Y-32011278D01*
X95319600Y-32011278D02*
X95224361Y-32058897D01*
X95224361Y-32058897D02*
X94367219Y-32058897D01*
X95319600Y-31154135D02*
X95367219Y-31249373D01*
X95367219Y-31249373D02*
X95367219Y-31439849D01*
X95367219Y-31439849D02*
X95319600Y-31535087D01*
X95319600Y-31535087D02*
X95224361Y-31582706D01*
X95224361Y-31582706D02*
X94843409Y-31582706D01*
X94843409Y-31582706D02*
X94748171Y-31535087D01*
X94748171Y-31535087D02*
X94700552Y-31439849D01*
X94700552Y-31439849D02*
X94700552Y-31249373D01*
X94700552Y-31249373D02*
X94748171Y-31154135D01*
X94748171Y-31154135D02*
X94843409Y-31106516D01*
X94843409Y-31106516D02*
X94938647Y-31106516D01*
X94938647Y-31106516D02*
X95033885Y-31582706D01*
X106345863Y-102367219D02*
X105869673Y-102367219D01*
X105869673Y-102367219D02*
X105869673Y-101367219D01*
X106822054Y-102367219D02*
X106726816Y-102319600D01*
X106726816Y-102319600D02*
X106679197Y-102271980D01*
X106679197Y-102271980D02*
X106631578Y-102176742D01*
X106631578Y-102176742D02*
X106631578Y-101891028D01*
X106631578Y-101891028D02*
X106679197Y-101795790D01*
X106679197Y-101795790D02*
X106726816Y-101748171D01*
X106726816Y-101748171D02*
X106822054Y-101700552D01*
X106822054Y-101700552D02*
X106964911Y-101700552D01*
X106964911Y-101700552D02*
X107060149Y-101748171D01*
X107060149Y-101748171D02*
X107107768Y-101795790D01*
X107107768Y-101795790D02*
X107155387Y-101891028D01*
X107155387Y-101891028D02*
X107155387Y-102176742D01*
X107155387Y-102176742D02*
X107107768Y-102271980D01*
X107107768Y-102271980D02*
X107060149Y-102319600D01*
X107060149Y-102319600D02*
X106964911Y-102367219D01*
X106964911Y-102367219D02*
X106822054Y-102367219D01*
X108155387Y-102367219D02*
X107822054Y-101891028D01*
X107583959Y-102367219D02*
X107583959Y-101367219D01*
X107583959Y-101367219D02*
X107964911Y-101367219D01*
X107964911Y-101367219D02*
X108060149Y-101414838D01*
X108060149Y-101414838D02*
X108107768Y-101462457D01*
X108107768Y-101462457D02*
X108155387Y-101557695D01*
X108155387Y-101557695D02*
X108155387Y-101700552D01*
X108155387Y-101700552D02*
X108107768Y-101795790D01*
X108107768Y-101795790D02*
X108060149Y-101843409D01*
X108060149Y-101843409D02*
X107964911Y-101891028D01*
X107964911Y-101891028D02*
X107583959Y-101891028D01*
X109012530Y-102367219D02*
X109012530Y-101843409D01*
X109012530Y-101843409D02*
X108964911Y-101748171D01*
X108964911Y-101748171D02*
X108869673Y-101700552D01*
X108869673Y-101700552D02*
X108679197Y-101700552D01*
X108679197Y-101700552D02*
X108583959Y-101748171D01*
X109012530Y-102319600D02*
X108917292Y-102367219D01*
X108917292Y-102367219D02*
X108679197Y-102367219D01*
X108679197Y-102367219D02*
X108583959Y-102319600D01*
X108583959Y-102319600D02*
X108536340Y-102224361D01*
X108536340Y-102224361D02*
X108536340Y-102129123D01*
X108536340Y-102129123D02*
X108583959Y-102033885D01*
X108583959Y-102033885D02*
X108679197Y-101986266D01*
X108679197Y-101986266D02*
X108917292Y-101986266D01*
X108917292Y-101986266D02*
X109012530Y-101938647D01*
X110250626Y-102367219D02*
X110250626Y-101367219D01*
X110250626Y-101367219D02*
X110583959Y-102081504D01*
X110583959Y-102081504D02*
X110917292Y-101367219D01*
X110917292Y-101367219D02*
X110917292Y-102367219D01*
X111536340Y-102367219D02*
X111441102Y-102319600D01*
X111441102Y-102319600D02*
X111393483Y-102271980D01*
X111393483Y-102271980D02*
X111345864Y-102176742D01*
X111345864Y-102176742D02*
X111345864Y-101891028D01*
X111345864Y-101891028D02*
X111393483Y-101795790D01*
X111393483Y-101795790D02*
X111441102Y-101748171D01*
X111441102Y-101748171D02*
X111536340Y-101700552D01*
X111536340Y-101700552D02*
X111679197Y-101700552D01*
X111679197Y-101700552D02*
X111774435Y-101748171D01*
X111774435Y-101748171D02*
X111822054Y-101795790D01*
X111822054Y-101795790D02*
X111869673Y-101891028D01*
X111869673Y-101891028D02*
X111869673Y-102176742D01*
X111869673Y-102176742D02*
X111822054Y-102271980D01*
X111822054Y-102271980D02*
X111774435Y-102319600D01*
X111774435Y-102319600D02*
X111679197Y-102367219D01*
X111679197Y-102367219D02*
X111536340Y-102367219D01*
X112726816Y-102367219D02*
X112726816Y-101367219D01*
X112726816Y-102319600D02*
X112631578Y-102367219D01*
X112631578Y-102367219D02*
X112441102Y-102367219D01*
X112441102Y-102367219D02*
X112345864Y-102319600D01*
X112345864Y-102319600D02*
X112298245Y-102271980D01*
X112298245Y-102271980D02*
X112250626Y-102176742D01*
X112250626Y-102176742D02*
X112250626Y-101891028D01*
X112250626Y-101891028D02*
X112298245Y-101795790D01*
X112298245Y-101795790D02*
X112345864Y-101748171D01*
X112345864Y-101748171D02*
X112441102Y-101700552D01*
X112441102Y-101700552D02*
X112631578Y-101700552D01*
X112631578Y-101700552D02*
X112726816Y-101748171D01*
X113631578Y-101700552D02*
X113631578Y-102367219D01*
X113203007Y-101700552D02*
X113203007Y-102224361D01*
X113203007Y-102224361D02*
X113250626Y-102319600D01*
X113250626Y-102319600D02*
X113345864Y-102367219D01*
X113345864Y-102367219D02*
X113488721Y-102367219D01*
X113488721Y-102367219D02*
X113583959Y-102319600D01*
X113583959Y-102319600D02*
X113631578Y-102271980D01*
X114250626Y-102367219D02*
X114155388Y-102319600D01*
X114155388Y-102319600D02*
X114107769Y-102224361D01*
X114107769Y-102224361D02*
X114107769Y-101367219D01*
X115012531Y-102319600D02*
X114917293Y-102367219D01*
X114917293Y-102367219D02*
X114726817Y-102367219D01*
X114726817Y-102367219D02*
X114631579Y-102319600D01*
X114631579Y-102319600D02*
X114583960Y-102224361D01*
X114583960Y-102224361D02*
X114583960Y-101843409D01*
X114583960Y-101843409D02*
X114631579Y-101748171D01*
X114631579Y-101748171D02*
X114726817Y-101700552D01*
X114726817Y-101700552D02*
X114917293Y-101700552D01*
X114917293Y-101700552D02*
X115012531Y-101748171D01*
X115012531Y-101748171D02*
X115060150Y-101843409D01*
X115060150Y-101843409D02*
X115060150Y-101938647D01*
X115060150Y-101938647D02*
X114583960Y-102033885D01*
X53369673Y-31986266D02*
X54131578Y-31986266D01*
X53750625Y-32367219D02*
X53750625Y-31605314D01*
X51180400Y-25322054D02*
X51132780Y-25464911D01*
X51132780Y-25464911D02*
X51132780Y-25703006D01*
X51132780Y-25703006D02*
X51180400Y-25798244D01*
X51180400Y-25798244D02*
X51228019Y-25845863D01*
X51228019Y-25845863D02*
X51323257Y-25893482D01*
X51323257Y-25893482D02*
X51418495Y-25893482D01*
X51418495Y-25893482D02*
X51513733Y-25845863D01*
X51513733Y-25845863D02*
X51561352Y-25798244D01*
X51561352Y-25798244D02*
X51608971Y-25703006D01*
X51608971Y-25703006D02*
X51656590Y-25512530D01*
X51656590Y-25512530D02*
X51704209Y-25417292D01*
X51704209Y-25417292D02*
X51751828Y-25369673D01*
X51751828Y-25369673D02*
X51847066Y-25322054D01*
X51847066Y-25322054D02*
X51942304Y-25322054D01*
X51942304Y-25322054D02*
X52037542Y-25369673D01*
X52037542Y-25369673D02*
X52085161Y-25417292D01*
X52085161Y-25417292D02*
X52132780Y-25512530D01*
X52132780Y-25512530D02*
X52132780Y-25750625D01*
X52132780Y-25750625D02*
X52085161Y-25893482D01*
X51132780Y-26464911D02*
X51180400Y-26369673D01*
X51180400Y-26369673D02*
X51228019Y-26322054D01*
X51228019Y-26322054D02*
X51323257Y-26274435D01*
X51323257Y-26274435D02*
X51608971Y-26274435D01*
X51608971Y-26274435D02*
X51704209Y-26322054D01*
X51704209Y-26322054D02*
X51751828Y-26369673D01*
X51751828Y-26369673D02*
X51799447Y-26464911D01*
X51799447Y-26464911D02*
X51799447Y-26607768D01*
X51799447Y-26607768D02*
X51751828Y-26703006D01*
X51751828Y-26703006D02*
X51704209Y-26750625D01*
X51704209Y-26750625D02*
X51608971Y-26798244D01*
X51608971Y-26798244D02*
X51323257Y-26798244D01*
X51323257Y-26798244D02*
X51228019Y-26750625D01*
X51228019Y-26750625D02*
X51180400Y-26703006D01*
X51180400Y-26703006D02*
X51132780Y-26607768D01*
X51132780Y-26607768D02*
X51132780Y-26464911D01*
X51132780Y-27369673D02*
X51180400Y-27274435D01*
X51180400Y-27274435D02*
X51275638Y-27226816D01*
X51275638Y-27226816D02*
X52132780Y-27226816D01*
X51132780Y-28179197D02*
X51656590Y-28179197D01*
X51656590Y-28179197D02*
X51751828Y-28131578D01*
X51751828Y-28131578D02*
X51799447Y-28036340D01*
X51799447Y-28036340D02*
X51799447Y-27845864D01*
X51799447Y-27845864D02*
X51751828Y-27750626D01*
X51180400Y-28179197D02*
X51132780Y-28083959D01*
X51132780Y-28083959D02*
X51132780Y-27845864D01*
X51132780Y-27845864D02*
X51180400Y-27750626D01*
X51180400Y-27750626D02*
X51275638Y-27703007D01*
X51275638Y-27703007D02*
X51370876Y-27703007D01*
X51370876Y-27703007D02*
X51466114Y-27750626D01*
X51466114Y-27750626D02*
X51513733Y-27845864D01*
X51513733Y-27845864D02*
X51513733Y-28083959D01*
X51513733Y-28083959D02*
X51561352Y-28179197D01*
X51132780Y-28655388D02*
X51799447Y-28655388D01*
X51608971Y-28655388D02*
X51704209Y-28703007D01*
X51704209Y-28703007D02*
X51751828Y-28750626D01*
X51751828Y-28750626D02*
X51799447Y-28845864D01*
X51799447Y-28845864D02*
X51799447Y-28941102D01*
X51180400Y-30464912D02*
X51132780Y-30369674D01*
X51132780Y-30369674D02*
X51132780Y-30179198D01*
X51132780Y-30179198D02*
X51180400Y-30083960D01*
X51180400Y-30083960D02*
X51228019Y-30036341D01*
X51228019Y-30036341D02*
X51323257Y-29988722D01*
X51323257Y-29988722D02*
X51608971Y-29988722D01*
X51608971Y-29988722D02*
X51704209Y-30036341D01*
X51704209Y-30036341D02*
X51751828Y-30083960D01*
X51751828Y-30083960D02*
X51799447Y-30179198D01*
X51799447Y-30179198D02*
X51799447Y-30369674D01*
X51799447Y-30369674D02*
X51751828Y-30464912D01*
X51180400Y-31274436D02*
X51132780Y-31179198D01*
X51132780Y-31179198D02*
X51132780Y-30988722D01*
X51132780Y-30988722D02*
X51180400Y-30893484D01*
X51180400Y-30893484D02*
X51275638Y-30845865D01*
X51275638Y-30845865D02*
X51656590Y-30845865D01*
X51656590Y-30845865D02*
X51751828Y-30893484D01*
X51751828Y-30893484D02*
X51799447Y-30988722D01*
X51799447Y-30988722D02*
X51799447Y-31179198D01*
X51799447Y-31179198D02*
X51751828Y-31274436D01*
X51751828Y-31274436D02*
X51656590Y-31322055D01*
X51656590Y-31322055D02*
X51561352Y-31322055D01*
X51561352Y-31322055D02*
X51466114Y-30845865D01*
X51132780Y-31893484D02*
X51180400Y-31798246D01*
X51180400Y-31798246D02*
X51275638Y-31750627D01*
X51275638Y-31750627D02*
X52132780Y-31750627D01*
X51132780Y-32417294D02*
X51180400Y-32322056D01*
X51180400Y-32322056D02*
X51275638Y-32274437D01*
X51275638Y-32274437D02*
X52132780Y-32274437D01*
X51869673Y-61986266D02*
X52631578Y-61986266D01*
X52250625Y-62367219D02*
X52250625Y-61605314D01*
X51703006Y-73343409D02*
X51845863Y-73391028D01*
X51845863Y-73391028D02*
X51893482Y-73438647D01*
X51893482Y-73438647D02*
X51941101Y-73533885D01*
X51941101Y-73533885D02*
X51941101Y-73676742D01*
X51941101Y-73676742D02*
X51893482Y-73771980D01*
X51893482Y-73771980D02*
X51845863Y-73819600D01*
X51845863Y-73819600D02*
X51750625Y-73867219D01*
X51750625Y-73867219D02*
X51369673Y-73867219D01*
X51369673Y-73867219D02*
X51369673Y-72867219D01*
X51369673Y-72867219D02*
X51703006Y-72867219D01*
X51703006Y-72867219D02*
X51798244Y-72914838D01*
X51798244Y-72914838D02*
X51845863Y-72962457D01*
X51845863Y-72962457D02*
X51893482Y-73057695D01*
X51893482Y-73057695D02*
X51893482Y-73152933D01*
X51893482Y-73152933D02*
X51845863Y-73248171D01*
X51845863Y-73248171D02*
X51798244Y-73295790D01*
X51798244Y-73295790D02*
X51703006Y-73343409D01*
X51703006Y-73343409D02*
X51369673Y-73343409D01*
X52798244Y-73867219D02*
X52798244Y-73343409D01*
X52798244Y-73343409D02*
X52750625Y-73248171D01*
X52750625Y-73248171D02*
X52655387Y-73200552D01*
X52655387Y-73200552D02*
X52464911Y-73200552D01*
X52464911Y-73200552D02*
X52369673Y-73248171D01*
X52798244Y-73819600D02*
X52703006Y-73867219D01*
X52703006Y-73867219D02*
X52464911Y-73867219D01*
X52464911Y-73867219D02*
X52369673Y-73819600D01*
X52369673Y-73819600D02*
X52322054Y-73724361D01*
X52322054Y-73724361D02*
X52322054Y-73629123D01*
X52322054Y-73629123D02*
X52369673Y-73533885D01*
X52369673Y-73533885D02*
X52464911Y-73486266D01*
X52464911Y-73486266D02*
X52703006Y-73486266D01*
X52703006Y-73486266D02*
X52798244Y-73438647D01*
X53131578Y-73200552D02*
X53512530Y-73200552D01*
X53274435Y-72867219D02*
X53274435Y-73724361D01*
X53274435Y-73724361D02*
X53322054Y-73819600D01*
X53322054Y-73819600D02*
X53417292Y-73867219D01*
X53417292Y-73867219D02*
X53512530Y-73867219D01*
X53703007Y-73200552D02*
X54083959Y-73200552D01*
X53845864Y-72867219D02*
X53845864Y-73724361D01*
X53845864Y-73724361D02*
X53893483Y-73819600D01*
X53893483Y-73819600D02*
X53988721Y-73867219D01*
X53988721Y-73867219D02*
X54083959Y-73867219D01*
X54798245Y-73819600D02*
X54703007Y-73867219D01*
X54703007Y-73867219D02*
X54512531Y-73867219D01*
X54512531Y-73867219D02*
X54417293Y-73819600D01*
X54417293Y-73819600D02*
X54369674Y-73724361D01*
X54369674Y-73724361D02*
X54369674Y-73343409D01*
X54369674Y-73343409D02*
X54417293Y-73248171D01*
X54417293Y-73248171D02*
X54512531Y-73200552D01*
X54512531Y-73200552D02*
X54703007Y-73200552D01*
X54703007Y-73200552D02*
X54798245Y-73248171D01*
X54798245Y-73248171D02*
X54845864Y-73343409D01*
X54845864Y-73343409D02*
X54845864Y-73438647D01*
X54845864Y-73438647D02*
X54369674Y-73533885D01*
X55274436Y-73867219D02*
X55274436Y-73200552D01*
X55274436Y-73391028D02*
X55322055Y-73295790D01*
X55322055Y-73295790D02*
X55369674Y-73248171D01*
X55369674Y-73248171D02*
X55464912Y-73200552D01*
X55464912Y-73200552D02*
X55560150Y-73200552D01*
X55798246Y-73200552D02*
X56036341Y-73867219D01*
X56274436Y-73200552D02*
X56036341Y-73867219D01*
X56036341Y-73867219D02*
X55941103Y-74105314D01*
X55941103Y-74105314D02*
X55893484Y-74152933D01*
X55893484Y-74152933D02*
X55798246Y-74200552D01*
X62369673Y-98486266D02*
X63131578Y-98486266D01*
X62750625Y-98867219D02*
X62750625Y-98105314D01*
X72822054Y-98819600D02*
X72964911Y-98867219D01*
X72964911Y-98867219D02*
X73203006Y-98867219D01*
X73203006Y-98867219D02*
X73298244Y-98819600D01*
X73298244Y-98819600D02*
X73345863Y-98771980D01*
X73345863Y-98771980D02*
X73393482Y-98676742D01*
X73393482Y-98676742D02*
X73393482Y-98581504D01*
X73393482Y-98581504D02*
X73345863Y-98486266D01*
X73345863Y-98486266D02*
X73298244Y-98438647D01*
X73298244Y-98438647D02*
X73203006Y-98391028D01*
X73203006Y-98391028D02*
X73012530Y-98343409D01*
X73012530Y-98343409D02*
X72917292Y-98295790D01*
X72917292Y-98295790D02*
X72869673Y-98248171D01*
X72869673Y-98248171D02*
X72822054Y-98152933D01*
X72822054Y-98152933D02*
X72822054Y-98057695D01*
X72822054Y-98057695D02*
X72869673Y-97962457D01*
X72869673Y-97962457D02*
X72917292Y-97914838D01*
X72917292Y-97914838D02*
X73012530Y-97867219D01*
X73012530Y-97867219D02*
X73250625Y-97867219D01*
X73250625Y-97867219D02*
X73393482Y-97914838D01*
X74393482Y-98771980D02*
X74345863Y-98819600D01*
X74345863Y-98819600D02*
X74203006Y-98867219D01*
X74203006Y-98867219D02*
X74107768Y-98867219D01*
X74107768Y-98867219D02*
X73964911Y-98819600D01*
X73964911Y-98819600D02*
X73869673Y-98724361D01*
X73869673Y-98724361D02*
X73822054Y-98629123D01*
X73822054Y-98629123D02*
X73774435Y-98438647D01*
X73774435Y-98438647D02*
X73774435Y-98295790D01*
X73774435Y-98295790D02*
X73822054Y-98105314D01*
X73822054Y-98105314D02*
X73869673Y-98010076D01*
X73869673Y-98010076D02*
X73964911Y-97914838D01*
X73964911Y-97914838D02*
X74107768Y-97867219D01*
X74107768Y-97867219D02*
X74203006Y-97867219D01*
X74203006Y-97867219D02*
X74345863Y-97914838D01*
X74345863Y-97914838D02*
X74393482Y-97962457D01*
X75298244Y-98867219D02*
X74822054Y-98867219D01*
X74822054Y-98867219D02*
X74822054Y-97867219D01*
X67822054Y-98819600D02*
X67964911Y-98867219D01*
X67964911Y-98867219D02*
X68203006Y-98867219D01*
X68203006Y-98867219D02*
X68298244Y-98819600D01*
X68298244Y-98819600D02*
X68345863Y-98771980D01*
X68345863Y-98771980D02*
X68393482Y-98676742D01*
X68393482Y-98676742D02*
X68393482Y-98581504D01*
X68393482Y-98581504D02*
X68345863Y-98486266D01*
X68345863Y-98486266D02*
X68298244Y-98438647D01*
X68298244Y-98438647D02*
X68203006Y-98391028D01*
X68203006Y-98391028D02*
X68012530Y-98343409D01*
X68012530Y-98343409D02*
X67917292Y-98295790D01*
X67917292Y-98295790D02*
X67869673Y-98248171D01*
X67869673Y-98248171D02*
X67822054Y-98152933D01*
X67822054Y-98152933D02*
X67822054Y-98057695D01*
X67822054Y-98057695D02*
X67869673Y-97962457D01*
X67869673Y-97962457D02*
X67917292Y-97914838D01*
X67917292Y-97914838D02*
X68012530Y-97867219D01*
X68012530Y-97867219D02*
X68250625Y-97867219D01*
X68250625Y-97867219D02*
X68393482Y-97914838D01*
X68822054Y-98867219D02*
X68822054Y-97867219D01*
X68822054Y-97867219D02*
X69060149Y-97867219D01*
X69060149Y-97867219D02*
X69203006Y-97914838D01*
X69203006Y-97914838D02*
X69298244Y-98010076D01*
X69298244Y-98010076D02*
X69345863Y-98105314D01*
X69345863Y-98105314D02*
X69393482Y-98295790D01*
X69393482Y-98295790D02*
X69393482Y-98438647D01*
X69393482Y-98438647D02*
X69345863Y-98629123D01*
X69345863Y-98629123D02*
X69298244Y-98724361D01*
X69298244Y-98724361D02*
X69203006Y-98819600D01*
X69203006Y-98819600D02*
X69060149Y-98867219D01*
X69060149Y-98867219D02*
X68822054Y-98867219D01*
X69774435Y-98581504D02*
X70250625Y-98581504D01*
X69679197Y-98867219D02*
X70012530Y-97867219D01*
X70012530Y-97867219D02*
X70345863Y-98867219D01*
X56418495Y-86322054D02*
X56418495Y-86798244D01*
X56132780Y-86226816D02*
X57132780Y-86560149D01*
X57132780Y-86560149D02*
X56132780Y-86893482D01*
X56132780Y-87226816D02*
X57132780Y-87226816D01*
X57132780Y-87226816D02*
X56418495Y-87560149D01*
X56418495Y-87560149D02*
X57132780Y-87893482D01*
X57132780Y-87893482D02*
X56132780Y-87893482D01*
X57037542Y-88322054D02*
X57085161Y-88369673D01*
X57085161Y-88369673D02*
X57132780Y-88464911D01*
X57132780Y-88464911D02*
X57132780Y-88703006D01*
X57132780Y-88703006D02*
X57085161Y-88798244D01*
X57085161Y-88798244D02*
X57037542Y-88845863D01*
X57037542Y-88845863D02*
X56942304Y-88893482D01*
X56942304Y-88893482D02*
X56847066Y-88893482D01*
X56847066Y-88893482D02*
X56704209Y-88845863D01*
X56704209Y-88845863D02*
X56132780Y-88274435D01*
X56132780Y-88274435D02*
X56132780Y-88893482D01*
X57132780Y-89226816D02*
X57132780Y-89845863D01*
X57132780Y-89845863D02*
X56751828Y-89512530D01*
X56751828Y-89512530D02*
X56751828Y-89655387D01*
X56751828Y-89655387D02*
X56704209Y-89750625D01*
X56704209Y-89750625D02*
X56656590Y-89798244D01*
X56656590Y-89798244D02*
X56561352Y-89845863D01*
X56561352Y-89845863D02*
X56323257Y-89845863D01*
X56323257Y-89845863D02*
X56228019Y-89798244D01*
X56228019Y-89798244D02*
X56180400Y-89750625D01*
X56180400Y-89750625D02*
X56132780Y-89655387D01*
X56132780Y-89655387D02*
X56132780Y-89369673D01*
X56132780Y-89369673D02*
X56180400Y-89274435D01*
X56180400Y-89274435D02*
X56228019Y-89226816D01*
X56132780Y-90798244D02*
X56132780Y-90226816D01*
X56132780Y-90512530D02*
X57132780Y-90512530D01*
X57132780Y-90512530D02*
X56989923Y-90417292D01*
X56989923Y-90417292D02*
X56894685Y-90322054D01*
X56894685Y-90322054D02*
X56847066Y-90226816D01*
X57132780Y-91703006D02*
X57132780Y-91226816D01*
X57132780Y-91226816D02*
X56656590Y-91179197D01*
X56656590Y-91179197D02*
X56704209Y-91226816D01*
X56704209Y-91226816D02*
X56751828Y-91322054D01*
X56751828Y-91322054D02*
X56751828Y-91560149D01*
X56751828Y-91560149D02*
X56704209Y-91655387D01*
X56704209Y-91655387D02*
X56656590Y-91703006D01*
X56656590Y-91703006D02*
X56561352Y-91750625D01*
X56561352Y-91750625D02*
X56323257Y-91750625D01*
X56323257Y-91750625D02*
X56228019Y-91703006D01*
X56228019Y-91703006D02*
X56180400Y-91655387D01*
X56180400Y-91655387D02*
X56132780Y-91560149D01*
X56132780Y-91560149D02*
X56132780Y-91322054D01*
X56132780Y-91322054D02*
X56180400Y-91226816D01*
X56180400Y-91226816D02*
X56228019Y-91179197D01*
X56228019Y-92750625D02*
X56180400Y-92703006D01*
X56180400Y-92703006D02*
X56132780Y-92560149D01*
X56132780Y-92560149D02*
X56132780Y-92464911D01*
X56132780Y-92464911D02*
X56180400Y-92322054D01*
X56180400Y-92322054D02*
X56275638Y-92226816D01*
X56275638Y-92226816D02*
X56370876Y-92179197D01*
X56370876Y-92179197D02*
X56561352Y-92131578D01*
X56561352Y-92131578D02*
X56704209Y-92131578D01*
X56704209Y-92131578D02*
X56894685Y-92179197D01*
X56894685Y-92179197D02*
X56989923Y-92226816D01*
X56989923Y-92226816D02*
X57085161Y-92322054D01*
X57085161Y-92322054D02*
X57132780Y-92464911D01*
X57132780Y-92464911D02*
X57132780Y-92560149D01*
X57132780Y-92560149D02*
X57085161Y-92703006D01*
X57085161Y-92703006D02*
X57037542Y-92750625D01*
X56132780Y-93941102D02*
X57132780Y-93941102D01*
X57132780Y-93941102D02*
X56418495Y-94274435D01*
X56418495Y-94274435D02*
X57132780Y-94607768D01*
X57132780Y-94607768D02*
X56132780Y-94607768D01*
X56132780Y-95226816D02*
X56180400Y-95131578D01*
X56180400Y-95131578D02*
X56228019Y-95083959D01*
X56228019Y-95083959D02*
X56323257Y-95036340D01*
X56323257Y-95036340D02*
X56608971Y-95036340D01*
X56608971Y-95036340D02*
X56704209Y-95083959D01*
X56704209Y-95083959D02*
X56751828Y-95131578D01*
X56751828Y-95131578D02*
X56799447Y-95226816D01*
X56799447Y-95226816D02*
X56799447Y-95369673D01*
X56799447Y-95369673D02*
X56751828Y-95464911D01*
X56751828Y-95464911D02*
X56704209Y-95512530D01*
X56704209Y-95512530D02*
X56608971Y-95560149D01*
X56608971Y-95560149D02*
X56323257Y-95560149D01*
X56323257Y-95560149D02*
X56228019Y-95512530D01*
X56228019Y-95512530D02*
X56180400Y-95464911D01*
X56180400Y-95464911D02*
X56132780Y-95369673D01*
X56132780Y-95369673D02*
X56132780Y-95226816D01*
X56132780Y-96417292D02*
X57132780Y-96417292D01*
X56180400Y-96417292D02*
X56132780Y-96322054D01*
X56132780Y-96322054D02*
X56132780Y-96131578D01*
X56132780Y-96131578D02*
X56180400Y-96036340D01*
X56180400Y-96036340D02*
X56228019Y-95988721D01*
X56228019Y-95988721D02*
X56323257Y-95941102D01*
X56323257Y-95941102D02*
X56608971Y-95941102D01*
X56608971Y-95941102D02*
X56704209Y-95988721D01*
X56704209Y-95988721D02*
X56751828Y-96036340D01*
X56751828Y-96036340D02*
X56799447Y-96131578D01*
X56799447Y-96131578D02*
X56799447Y-96322054D01*
X56799447Y-96322054D02*
X56751828Y-96417292D01*
X56799447Y-97322054D02*
X56132780Y-97322054D01*
X56799447Y-96893483D02*
X56275638Y-96893483D01*
X56275638Y-96893483D02*
X56180400Y-96941102D01*
X56180400Y-96941102D02*
X56132780Y-97036340D01*
X56132780Y-97036340D02*
X56132780Y-97179197D01*
X56132780Y-97179197D02*
X56180400Y-97274435D01*
X56180400Y-97274435D02*
X56228019Y-97322054D01*
X56132780Y-97941102D02*
X56180400Y-97845864D01*
X56180400Y-97845864D02*
X56275638Y-97798245D01*
X56275638Y-97798245D02*
X57132780Y-97798245D01*
X56180400Y-98703007D02*
X56132780Y-98607769D01*
X56132780Y-98607769D02*
X56132780Y-98417293D01*
X56132780Y-98417293D02*
X56180400Y-98322055D01*
X56180400Y-98322055D02*
X56275638Y-98274436D01*
X56275638Y-98274436D02*
X56656590Y-98274436D01*
X56656590Y-98274436D02*
X56751828Y-98322055D01*
X56751828Y-98322055D02*
X56799447Y-98417293D01*
X56799447Y-98417293D02*
X56799447Y-98607769D01*
X56799447Y-98607769D02*
X56751828Y-98703007D01*
X56751828Y-98703007D02*
X56656590Y-98750626D01*
X56656590Y-98750626D02*
X56561352Y-98750626D01*
X56561352Y-98750626D02*
X56466114Y-98274436D01*
D11*
X69444345Y-51748569D02*
X69444345Y-52558092D01*
X69444345Y-52558092D02*
X69491964Y-52653330D01*
X69491964Y-52653330D02*
X69539583Y-52700950D01*
X69539583Y-52700950D02*
X69634821Y-52748569D01*
X69634821Y-52748569D02*
X69825297Y-52748569D01*
X69825297Y-52748569D02*
X69920535Y-52700950D01*
X69920535Y-52700950D02*
X69968154Y-52653330D01*
X69968154Y-52653330D02*
X70015773Y-52558092D01*
X70015773Y-52558092D02*
X70015773Y-51748569D01*
X70920535Y-51748569D02*
X70730059Y-51748569D01*
X70730059Y-51748569D02*
X70634821Y-51796188D01*
X70634821Y-51796188D02*
X70587202Y-51843807D01*
X70587202Y-51843807D02*
X70491964Y-51986664D01*
X70491964Y-51986664D02*
X70444345Y-52177140D01*
X70444345Y-52177140D02*
X70444345Y-52558092D01*
X70444345Y-52558092D02*
X70491964Y-52653330D01*
X70491964Y-52653330D02*
X70539583Y-52700950D01*
X70539583Y-52700950D02*
X70634821Y-52748569D01*
X70634821Y-52748569D02*
X70825297Y-52748569D01*
X70825297Y-52748569D02*
X70920535Y-52700950D01*
X70920535Y-52700950D02*
X70968154Y-52653330D01*
X70968154Y-52653330D02*
X71015773Y-52558092D01*
X71015773Y-52558092D02*
X71015773Y-52319997D01*
X71015773Y-52319997D02*
X70968154Y-52224759D01*
X70968154Y-52224759D02*
X70920535Y-52177140D01*
X70920535Y-52177140D02*
X70825297Y-52129521D01*
X70825297Y-52129521D02*
X70634821Y-52129521D01*
X70634821Y-52129521D02*
X70539583Y-52177140D01*
X70539583Y-52177140D02*
X70491964Y-52224759D01*
X70491964Y-52224759D02*
X70444345Y-52319997D01*
X67907550Y-49275369D02*
X67907550Y-49513464D01*
X67669455Y-49418226D02*
X67907550Y-49513464D01*
X67907550Y-49513464D02*
X68145645Y-49418226D01*
X67764693Y-49703940D02*
X67907550Y-49513464D01*
X67907550Y-49513464D02*
X68050407Y-49703940D01*
X67907550Y-49275369D02*
X67907550Y-49513464D01*
X67669455Y-49418226D02*
X67907550Y-49513464D01*
X67907550Y-49513464D02*
X68145645Y-49418226D01*
X67764693Y-49703940D02*
X67907550Y-49513464D01*
X67907550Y-49513464D02*
X68050407Y-49703940D01*
X104661069Y-37755654D02*
X105470592Y-37755654D01*
X105470592Y-37755654D02*
X105565830Y-37708035D01*
X105565830Y-37708035D02*
X105613450Y-37660416D01*
X105613450Y-37660416D02*
X105661069Y-37565178D01*
X105661069Y-37565178D02*
X105661069Y-37374702D01*
X105661069Y-37374702D02*
X105613450Y-37279464D01*
X105613450Y-37279464D02*
X105565830Y-37231845D01*
X105565830Y-37231845D02*
X105470592Y-37184226D01*
X105470592Y-37184226D02*
X104661069Y-37184226D01*
X104994402Y-36279464D02*
X105661069Y-36279464D01*
X104613450Y-36517559D02*
X105327735Y-36755654D01*
X105327735Y-36755654D02*
X105327735Y-36136607D01*
X52748569Y-47944344D02*
X51748569Y-47944344D01*
X51748569Y-47944344D02*
X51748569Y-47706249D01*
X51748569Y-47706249D02*
X51796188Y-47563392D01*
X51796188Y-47563392D02*
X51891426Y-47468154D01*
X51891426Y-47468154D02*
X51986664Y-47420535D01*
X51986664Y-47420535D02*
X52177140Y-47372916D01*
X52177140Y-47372916D02*
X52319997Y-47372916D01*
X52319997Y-47372916D02*
X52510473Y-47420535D01*
X52510473Y-47420535D02*
X52605711Y-47468154D01*
X52605711Y-47468154D02*
X52700950Y-47563392D01*
X52700950Y-47563392D02*
X52748569Y-47706249D01*
X52748569Y-47706249D02*
X52748569Y-47944344D01*
X51843807Y-46991963D02*
X51796188Y-46944344D01*
X51796188Y-46944344D02*
X51748569Y-46849106D01*
X51748569Y-46849106D02*
X51748569Y-46611011D01*
X51748569Y-46611011D02*
X51796188Y-46515773D01*
X51796188Y-46515773D02*
X51843807Y-46468154D01*
X51843807Y-46468154D02*
X51939045Y-46420535D01*
X51939045Y-46420535D02*
X52034283Y-46420535D01*
X52034283Y-46420535D02*
X52177140Y-46468154D01*
X52177140Y-46468154D02*
X52748569Y-47039582D01*
X52748569Y-47039582D02*
X52748569Y-46420535D01*
X53444345Y-99848569D02*
X53444345Y-98848569D01*
X53444345Y-99324759D02*
X54015773Y-99324759D01*
X54015773Y-99848569D02*
X54015773Y-98848569D01*
X54396726Y-98848569D02*
X55015773Y-98848569D01*
X55015773Y-98848569D02*
X54682440Y-99229521D01*
X54682440Y-99229521D02*
X54825297Y-99229521D01*
X54825297Y-99229521D02*
X54920535Y-99277140D01*
X54920535Y-99277140D02*
X54968154Y-99324759D01*
X54968154Y-99324759D02*
X55015773Y-99419997D01*
X55015773Y-99419997D02*
X55015773Y-99658092D01*
X55015773Y-99658092D02*
X54968154Y-99753330D01*
X54968154Y-99753330D02*
X54920535Y-99800950D01*
X54920535Y-99800950D02*
X54825297Y-99848569D01*
X54825297Y-99848569D02*
X54539583Y-99848569D01*
X54539583Y-99848569D02*
X54444345Y-99800950D01*
X54444345Y-99800950D02*
X54396726Y-99753330D01*
X59150892Y-49818569D02*
X58817559Y-49342378D01*
X58579464Y-49818569D02*
X58579464Y-48818569D01*
X58579464Y-48818569D02*
X58960416Y-48818569D01*
X58960416Y-48818569D02*
X59055654Y-48866188D01*
X59055654Y-48866188D02*
X59103273Y-48913807D01*
X59103273Y-48913807D02*
X59150892Y-49009045D01*
X59150892Y-49009045D02*
X59150892Y-49151902D01*
X59150892Y-49151902D02*
X59103273Y-49247140D01*
X59103273Y-49247140D02*
X59055654Y-49294759D01*
X59055654Y-49294759D02*
X58960416Y-49342378D01*
X58960416Y-49342378D02*
X58579464Y-49342378D01*
X60103273Y-49818569D02*
X59531845Y-49818569D01*
X59817559Y-49818569D02*
X59817559Y-48818569D01*
X59817559Y-48818569D02*
X59722321Y-48961426D01*
X59722321Y-48961426D02*
X59627083Y-49056664D01*
X59627083Y-49056664D02*
X59531845Y-49104283D01*
X60722321Y-48818569D02*
X60817559Y-48818569D01*
X60817559Y-48818569D02*
X60912797Y-48866188D01*
X60912797Y-48866188D02*
X60960416Y-48913807D01*
X60960416Y-48913807D02*
X61008035Y-49009045D01*
X61008035Y-49009045D02*
X61055654Y-49199521D01*
X61055654Y-49199521D02*
X61055654Y-49437616D01*
X61055654Y-49437616D02*
X61008035Y-49628092D01*
X61008035Y-49628092D02*
X60960416Y-49723330D01*
X60960416Y-49723330D02*
X60912797Y-49770950D01*
X60912797Y-49770950D02*
X60817559Y-49818569D01*
X60817559Y-49818569D02*
X60722321Y-49818569D01*
X60722321Y-49818569D02*
X60627083Y-49770950D01*
X60627083Y-49770950D02*
X60579464Y-49723330D01*
X60579464Y-49723330D02*
X60531845Y-49628092D01*
X60531845Y-49628092D02*
X60484226Y-49437616D01*
X60484226Y-49437616D02*
X60484226Y-49199521D01*
X60484226Y-49199521D02*
X60531845Y-49009045D01*
X60531845Y-49009045D02*
X60579464Y-48913807D01*
X60579464Y-48913807D02*
X60627083Y-48866188D01*
X60627083Y-48866188D02*
X60722321Y-48818569D01*
X124944345Y-26348569D02*
X124944345Y-25348569D01*
X124944345Y-25824759D02*
X125515773Y-25824759D01*
X125515773Y-26348569D02*
X125515773Y-25348569D01*
X125944345Y-25443807D02*
X125991964Y-25396188D01*
X125991964Y-25396188D02*
X126087202Y-25348569D01*
X126087202Y-25348569D02*
X126325297Y-25348569D01*
X126325297Y-25348569D02*
X126420535Y-25396188D01*
X126420535Y-25396188D02*
X126468154Y-25443807D01*
X126468154Y-25443807D02*
X126515773Y-25539045D01*
X126515773Y-25539045D02*
X126515773Y-25634283D01*
X126515773Y-25634283D02*
X126468154Y-25777140D01*
X126468154Y-25777140D02*
X125896726Y-26348569D01*
X125896726Y-26348569D02*
X126515773Y-26348569D01*
X123919530Y-54656047D02*
X123443339Y-54989380D01*
X123919530Y-55227475D02*
X122919530Y-55227475D01*
X122919530Y-55227475D02*
X122919530Y-54846523D01*
X122919530Y-54846523D02*
X122967149Y-54751285D01*
X122967149Y-54751285D02*
X123014768Y-54703666D01*
X123014768Y-54703666D02*
X123110006Y-54656047D01*
X123110006Y-54656047D02*
X123252863Y-54656047D01*
X123252863Y-54656047D02*
X123348101Y-54703666D01*
X123348101Y-54703666D02*
X123395720Y-54751285D01*
X123395720Y-54751285D02*
X123443339Y-54846523D01*
X123443339Y-54846523D02*
X123443339Y-55227475D01*
X123919530Y-53703666D02*
X123919530Y-54275094D01*
X123919530Y-53989380D02*
X122919530Y-53989380D01*
X122919530Y-53989380D02*
X123062387Y-54084618D01*
X123062387Y-54084618D02*
X123157625Y-54179856D01*
X123157625Y-54179856D02*
X123205244Y-54275094D01*
X121954819Y-36833333D02*
X122669104Y-36833333D01*
X122669104Y-36833333D02*
X122811961Y-36880952D01*
X122811961Y-36880952D02*
X122907200Y-36976190D01*
X122907200Y-36976190D02*
X122954819Y-37119047D01*
X122954819Y-37119047D02*
X122954819Y-37214285D01*
X121954819Y-35880952D02*
X121954819Y-36357142D01*
X121954819Y-36357142D02*
X122431009Y-36404761D01*
X122431009Y-36404761D02*
X122383390Y-36357142D01*
X122383390Y-36357142D02*
X122335771Y-36261904D01*
X122335771Y-36261904D02*
X122335771Y-36023809D01*
X122335771Y-36023809D02*
X122383390Y-35928571D01*
X122383390Y-35928571D02*
X122431009Y-35880952D01*
X122431009Y-35880952D02*
X122526247Y-35833333D01*
X122526247Y-35833333D02*
X122764342Y-35833333D01*
X122764342Y-35833333D02*
X122859580Y-35880952D01*
X122859580Y-35880952D02*
X122907200Y-35928571D01*
X122907200Y-35928571D02*
X122954819Y-36023809D01*
X122954819Y-36023809D02*
X122954819Y-36261904D01*
X122954819Y-36261904D02*
X122907200Y-36357142D01*
X122907200Y-36357142D02*
X122859580Y-36404761D01*
X52661069Y-50531844D02*
X51661069Y-50531844D01*
X51661069Y-50531844D02*
X51661069Y-50293749D01*
X51661069Y-50293749D02*
X51708688Y-50150892D01*
X51708688Y-50150892D02*
X51803926Y-50055654D01*
X51803926Y-50055654D02*
X51899164Y-50008035D01*
X51899164Y-50008035D02*
X52089640Y-49960416D01*
X52089640Y-49960416D02*
X52232497Y-49960416D01*
X52232497Y-49960416D02*
X52422973Y-50008035D01*
X52422973Y-50008035D02*
X52518211Y-50055654D01*
X52518211Y-50055654D02*
X52613450Y-50150892D01*
X52613450Y-50150892D02*
X52661069Y-50293749D01*
X52661069Y-50293749D02*
X52661069Y-50531844D01*
X51661069Y-49627082D02*
X51661069Y-49008035D01*
X51661069Y-49008035D02*
X52042021Y-49341368D01*
X52042021Y-49341368D02*
X52042021Y-49198511D01*
X52042021Y-49198511D02*
X52089640Y-49103273D01*
X52089640Y-49103273D02*
X52137259Y-49055654D01*
X52137259Y-49055654D02*
X52232497Y-49008035D01*
X52232497Y-49008035D02*
X52470592Y-49008035D01*
X52470592Y-49008035D02*
X52565830Y-49055654D01*
X52565830Y-49055654D02*
X52613450Y-49103273D01*
X52613450Y-49103273D02*
X52661069Y-49198511D01*
X52661069Y-49198511D02*
X52661069Y-49484225D01*
X52661069Y-49484225D02*
X52613450Y-49579463D01*
X52613450Y-49579463D02*
X52565830Y-49627082D01*
X69857142Y-46359580D02*
X69809523Y-46407200D01*
X69809523Y-46407200D02*
X69666666Y-46454819D01*
X69666666Y-46454819D02*
X69571428Y-46454819D01*
X69571428Y-46454819D02*
X69428571Y-46407200D01*
X69428571Y-46407200D02*
X69333333Y-46311961D01*
X69333333Y-46311961D02*
X69285714Y-46216723D01*
X69285714Y-46216723D02*
X69238095Y-46026247D01*
X69238095Y-46026247D02*
X69238095Y-45883390D01*
X69238095Y-45883390D02*
X69285714Y-45692914D01*
X69285714Y-45692914D02*
X69333333Y-45597676D01*
X69333333Y-45597676D02*
X69428571Y-45502438D01*
X69428571Y-45502438D02*
X69571428Y-45454819D01*
X69571428Y-45454819D02*
X69666666Y-45454819D01*
X69666666Y-45454819D02*
X69809523Y-45502438D01*
X69809523Y-45502438D02*
X69857142Y-45550057D01*
X70809523Y-46454819D02*
X70238095Y-46454819D01*
X70523809Y-46454819D02*
X70523809Y-45454819D01*
X70523809Y-45454819D02*
X70428571Y-45597676D01*
X70428571Y-45597676D02*
X70333333Y-45692914D01*
X70333333Y-45692914D02*
X70238095Y-45740533D01*
X71761904Y-46454819D02*
X71190476Y-46454819D01*
X71476190Y-46454819D02*
X71476190Y-45454819D01*
X71476190Y-45454819D02*
X71380952Y-45597676D01*
X71380952Y-45597676D02*
X71285714Y-45692914D01*
X71285714Y-45692914D02*
X71190476Y-45740533D01*
X55161069Y-39627083D02*
X55875354Y-39627083D01*
X55875354Y-39627083D02*
X56018211Y-39674702D01*
X56018211Y-39674702D02*
X56113450Y-39769940D01*
X56113450Y-39769940D02*
X56161069Y-39912797D01*
X56161069Y-39912797D02*
X56161069Y-40008035D01*
X55161069Y-39246130D02*
X55161069Y-38627083D01*
X55161069Y-38627083D02*
X55542021Y-38960416D01*
X55542021Y-38960416D02*
X55542021Y-38817559D01*
X55542021Y-38817559D02*
X55589640Y-38722321D01*
X55589640Y-38722321D02*
X55637259Y-38674702D01*
X55637259Y-38674702D02*
X55732497Y-38627083D01*
X55732497Y-38627083D02*
X55970592Y-38627083D01*
X55970592Y-38627083D02*
X56065830Y-38674702D01*
X56065830Y-38674702D02*
X56113450Y-38722321D01*
X56113450Y-38722321D02*
X56161069Y-38817559D01*
X56161069Y-38817559D02*
X56161069Y-39103273D01*
X56161069Y-39103273D02*
X56113450Y-39198511D01*
X56113450Y-39198511D02*
X56065830Y-39246130D01*
X77091069Y-46047916D02*
X76614878Y-46381249D01*
X77091069Y-46619344D02*
X76091069Y-46619344D01*
X76091069Y-46619344D02*
X76091069Y-46238392D01*
X76091069Y-46238392D02*
X76138688Y-46143154D01*
X76138688Y-46143154D02*
X76186307Y-46095535D01*
X76186307Y-46095535D02*
X76281545Y-46047916D01*
X76281545Y-46047916D02*
X76424402Y-46047916D01*
X76424402Y-46047916D02*
X76519640Y-46095535D01*
X76519640Y-46095535D02*
X76567259Y-46143154D01*
X76567259Y-46143154D02*
X76614878Y-46238392D01*
X76614878Y-46238392D02*
X76614878Y-46619344D01*
X76091069Y-45190773D02*
X76091069Y-45381249D01*
X76091069Y-45381249D02*
X76138688Y-45476487D01*
X76138688Y-45476487D02*
X76186307Y-45524106D01*
X76186307Y-45524106D02*
X76329164Y-45619344D01*
X76329164Y-45619344D02*
X76519640Y-45666963D01*
X76519640Y-45666963D02*
X76900592Y-45666963D01*
X76900592Y-45666963D02*
X76995830Y-45619344D01*
X76995830Y-45619344D02*
X77043450Y-45571725D01*
X77043450Y-45571725D02*
X77091069Y-45476487D01*
X77091069Y-45476487D02*
X77091069Y-45286011D01*
X77091069Y-45286011D02*
X77043450Y-45190773D01*
X77043450Y-45190773D02*
X76995830Y-45143154D01*
X76995830Y-45143154D02*
X76900592Y-45095535D01*
X76900592Y-45095535D02*
X76662497Y-45095535D01*
X76662497Y-45095535D02*
X76567259Y-45143154D01*
X76567259Y-45143154D02*
X76519640Y-45190773D01*
X76519640Y-45190773D02*
X76472021Y-45286011D01*
X76472021Y-45286011D02*
X76472021Y-45476487D01*
X76472021Y-45476487D02*
X76519640Y-45571725D01*
X76519640Y-45571725D02*
X76567259Y-45619344D01*
X76567259Y-45619344D02*
X76662497Y-45666963D01*
X108010608Y-47116050D02*
X107677275Y-47116050D01*
X107677275Y-47639860D02*
X107677275Y-46639860D01*
X107677275Y-46639860D02*
X108153465Y-46639860D01*
X108867751Y-47116050D02*
X109010608Y-47163669D01*
X109010608Y-47163669D02*
X109058227Y-47211288D01*
X109058227Y-47211288D02*
X109105846Y-47306526D01*
X109105846Y-47306526D02*
X109105846Y-47449383D01*
X109105846Y-47449383D02*
X109058227Y-47544621D01*
X109058227Y-47544621D02*
X109010608Y-47592241D01*
X109010608Y-47592241D02*
X108915370Y-47639860D01*
X108915370Y-47639860D02*
X108534418Y-47639860D01*
X108534418Y-47639860D02*
X108534418Y-46639860D01*
X108534418Y-46639860D02*
X108867751Y-46639860D01*
X108867751Y-46639860D02*
X108962989Y-46687479D01*
X108962989Y-46687479D02*
X109010608Y-46735098D01*
X109010608Y-46735098D02*
X109058227Y-46830336D01*
X109058227Y-46830336D02*
X109058227Y-46925574D01*
X109058227Y-46925574D02*
X109010608Y-47020812D01*
X109010608Y-47020812D02*
X108962989Y-47068431D01*
X108962989Y-47068431D02*
X108867751Y-47116050D01*
X108867751Y-47116050D02*
X108534418Y-47116050D01*
X110058227Y-47639860D02*
X109486799Y-47639860D01*
X109772513Y-47639860D02*
X109772513Y-46639860D01*
X109772513Y-46639860D02*
X109677275Y-46782717D01*
X109677275Y-46782717D02*
X109582037Y-46877955D01*
X109582037Y-46877955D02*
X109486799Y-46925574D01*
X103039583Y-51153330D02*
X102991964Y-51200950D01*
X102991964Y-51200950D02*
X102849107Y-51248569D01*
X102849107Y-51248569D02*
X102753869Y-51248569D01*
X102753869Y-51248569D02*
X102611012Y-51200950D01*
X102611012Y-51200950D02*
X102515774Y-51105711D01*
X102515774Y-51105711D02*
X102468155Y-51010473D01*
X102468155Y-51010473D02*
X102420536Y-50819997D01*
X102420536Y-50819997D02*
X102420536Y-50677140D01*
X102420536Y-50677140D02*
X102468155Y-50486664D01*
X102468155Y-50486664D02*
X102515774Y-50391426D01*
X102515774Y-50391426D02*
X102611012Y-50296188D01*
X102611012Y-50296188D02*
X102753869Y-50248569D01*
X102753869Y-50248569D02*
X102849107Y-50248569D01*
X102849107Y-50248569D02*
X102991964Y-50296188D01*
X102991964Y-50296188D02*
X103039583Y-50343807D01*
X103896726Y-50248569D02*
X103706250Y-50248569D01*
X103706250Y-50248569D02*
X103611012Y-50296188D01*
X103611012Y-50296188D02*
X103563393Y-50343807D01*
X103563393Y-50343807D02*
X103468155Y-50486664D01*
X103468155Y-50486664D02*
X103420536Y-50677140D01*
X103420536Y-50677140D02*
X103420536Y-51058092D01*
X103420536Y-51058092D02*
X103468155Y-51153330D01*
X103468155Y-51153330D02*
X103515774Y-51200950D01*
X103515774Y-51200950D02*
X103611012Y-51248569D01*
X103611012Y-51248569D02*
X103801488Y-51248569D01*
X103801488Y-51248569D02*
X103896726Y-51200950D01*
X103896726Y-51200950D02*
X103944345Y-51153330D01*
X103944345Y-51153330D02*
X103991964Y-51058092D01*
X103991964Y-51058092D02*
X103991964Y-50819997D01*
X103991964Y-50819997D02*
X103944345Y-50724759D01*
X103944345Y-50724759D02*
X103896726Y-50677140D01*
X103896726Y-50677140D02*
X103801488Y-50629521D01*
X103801488Y-50629521D02*
X103611012Y-50629521D01*
X103611012Y-50629521D02*
X103515774Y-50677140D01*
X103515774Y-50677140D02*
X103468155Y-50724759D01*
X103468155Y-50724759D02*
X103420536Y-50819997D01*
X88452083Y-44318569D02*
X88118750Y-43842378D01*
X87880655Y-44318569D02*
X87880655Y-43318569D01*
X87880655Y-43318569D02*
X88261607Y-43318569D01*
X88261607Y-43318569D02*
X88356845Y-43366188D01*
X88356845Y-43366188D02*
X88404464Y-43413807D01*
X88404464Y-43413807D02*
X88452083Y-43509045D01*
X88452083Y-43509045D02*
X88452083Y-43651902D01*
X88452083Y-43651902D02*
X88404464Y-43747140D01*
X88404464Y-43747140D02*
X88356845Y-43794759D01*
X88356845Y-43794759D02*
X88261607Y-43842378D01*
X88261607Y-43842378D02*
X87880655Y-43842378D01*
X88785417Y-43318569D02*
X89452083Y-43318569D01*
X89452083Y-43318569D02*
X89023512Y-44318569D01*
X98269750Y-64786881D02*
X97793559Y-65120214D01*
X98269750Y-65358309D02*
X97269750Y-65358309D01*
X97269750Y-65358309D02*
X97269750Y-64977357D01*
X97269750Y-64977357D02*
X97317369Y-64882119D01*
X97317369Y-64882119D02*
X97364988Y-64834500D01*
X97364988Y-64834500D02*
X97460226Y-64786881D01*
X97460226Y-64786881D02*
X97603083Y-64786881D01*
X97603083Y-64786881D02*
X97698321Y-64834500D01*
X97698321Y-64834500D02*
X97745940Y-64882119D01*
X97745940Y-64882119D02*
X97793559Y-64977357D01*
X97793559Y-64977357D02*
X97793559Y-65358309D01*
X98269750Y-63834500D02*
X98269750Y-64405928D01*
X98269750Y-64120214D02*
X97269750Y-64120214D01*
X97269750Y-64120214D02*
X97412607Y-64215452D01*
X97412607Y-64215452D02*
X97507845Y-64310690D01*
X97507845Y-64310690D02*
X97555464Y-64405928D01*
X97269750Y-62929738D02*
X97269750Y-63405928D01*
X97269750Y-63405928D02*
X97745940Y-63453547D01*
X97745940Y-63453547D02*
X97698321Y-63405928D01*
X97698321Y-63405928D02*
X97650702Y-63310690D01*
X97650702Y-63310690D02*
X97650702Y-63072595D01*
X97650702Y-63072595D02*
X97698321Y-62977357D01*
X97698321Y-62977357D02*
X97745940Y-62929738D01*
X97745940Y-62929738D02*
X97841178Y-62882119D01*
X97841178Y-62882119D02*
X98079273Y-62882119D01*
X98079273Y-62882119D02*
X98174511Y-62929738D01*
X98174511Y-62929738D02*
X98222131Y-62977357D01*
X98222131Y-62977357D02*
X98269750Y-63072595D01*
X98269750Y-63072595D02*
X98269750Y-63310690D01*
X98269750Y-63310690D02*
X98222131Y-63405928D01*
X98222131Y-63405928D02*
X98174511Y-63453547D01*
X84454819Y-71261904D02*
X85264342Y-71261904D01*
X85264342Y-71261904D02*
X85359580Y-71214285D01*
X85359580Y-71214285D02*
X85407200Y-71166666D01*
X85407200Y-71166666D02*
X85454819Y-71071428D01*
X85454819Y-71071428D02*
X85454819Y-70880952D01*
X85454819Y-70880952D02*
X85407200Y-70785714D01*
X85407200Y-70785714D02*
X85359580Y-70738095D01*
X85359580Y-70738095D02*
X85264342Y-70690476D01*
X85264342Y-70690476D02*
X84454819Y-70690476D01*
X84883390Y-70071428D02*
X84835771Y-70166666D01*
X84835771Y-70166666D02*
X84788152Y-70214285D01*
X84788152Y-70214285D02*
X84692914Y-70261904D01*
X84692914Y-70261904D02*
X84645295Y-70261904D01*
X84645295Y-70261904D02*
X84550057Y-70214285D01*
X84550057Y-70214285D02*
X84502438Y-70166666D01*
X84502438Y-70166666D02*
X84454819Y-70071428D01*
X84454819Y-70071428D02*
X84454819Y-69880952D01*
X84454819Y-69880952D02*
X84502438Y-69785714D01*
X84502438Y-69785714D02*
X84550057Y-69738095D01*
X84550057Y-69738095D02*
X84645295Y-69690476D01*
X84645295Y-69690476D02*
X84692914Y-69690476D01*
X84692914Y-69690476D02*
X84788152Y-69738095D01*
X84788152Y-69738095D02*
X84835771Y-69785714D01*
X84835771Y-69785714D02*
X84883390Y-69880952D01*
X84883390Y-69880952D02*
X84883390Y-70071428D01*
X84883390Y-70071428D02*
X84931009Y-70166666D01*
X84931009Y-70166666D02*
X84978628Y-70214285D01*
X84978628Y-70214285D02*
X85073866Y-70261904D01*
X85073866Y-70261904D02*
X85264342Y-70261904D01*
X85264342Y-70261904D02*
X85359580Y-70214285D01*
X85359580Y-70214285D02*
X85407200Y-70166666D01*
X85407200Y-70166666D02*
X85454819Y-70071428D01*
X85454819Y-70071428D02*
X85454819Y-69880952D01*
X85454819Y-69880952D02*
X85407200Y-69785714D01*
X85407200Y-69785714D02*
X85359580Y-69738095D01*
X85359580Y-69738095D02*
X85264342Y-69690476D01*
X85264342Y-69690476D02*
X85073866Y-69690476D01*
X85073866Y-69690476D02*
X84978628Y-69738095D01*
X84978628Y-69738095D02*
X84931009Y-69785714D01*
X84931009Y-69785714D02*
X84883390Y-69880952D01*
X98913450Y-82127082D02*
X98961069Y-81984225D01*
X98961069Y-81984225D02*
X98961069Y-81746130D01*
X98961069Y-81746130D02*
X98913450Y-81650892D01*
X98913450Y-81650892D02*
X98865830Y-81603273D01*
X98865830Y-81603273D02*
X98770592Y-81555654D01*
X98770592Y-81555654D02*
X98675354Y-81555654D01*
X98675354Y-81555654D02*
X98580116Y-81603273D01*
X98580116Y-81603273D02*
X98532497Y-81650892D01*
X98532497Y-81650892D02*
X98484878Y-81746130D01*
X98484878Y-81746130D02*
X98437259Y-81936606D01*
X98437259Y-81936606D02*
X98389640Y-82031844D01*
X98389640Y-82031844D02*
X98342021Y-82079463D01*
X98342021Y-82079463D02*
X98246783Y-82127082D01*
X98246783Y-82127082D02*
X98151545Y-82127082D01*
X98151545Y-82127082D02*
X98056307Y-82079463D01*
X98056307Y-82079463D02*
X98008688Y-82031844D01*
X98008688Y-82031844D02*
X97961069Y-81936606D01*
X97961069Y-81936606D02*
X97961069Y-81698511D01*
X97961069Y-81698511D02*
X98008688Y-81555654D01*
X97961069Y-81222320D02*
X98961069Y-80984225D01*
X98961069Y-80984225D02*
X98246783Y-80793749D01*
X98246783Y-80793749D02*
X98961069Y-80603273D01*
X98961069Y-80603273D02*
X97961069Y-80365178D01*
X97961069Y-80079463D02*
X97961069Y-79460416D01*
X97961069Y-79460416D02*
X98342021Y-79793749D01*
X98342021Y-79793749D02*
X98342021Y-79650892D01*
X98342021Y-79650892D02*
X98389640Y-79555654D01*
X98389640Y-79555654D02*
X98437259Y-79508035D01*
X98437259Y-79508035D02*
X98532497Y-79460416D01*
X98532497Y-79460416D02*
X98770592Y-79460416D01*
X98770592Y-79460416D02*
X98865830Y-79508035D01*
X98865830Y-79508035D02*
X98913450Y-79555654D01*
X98913450Y-79555654D02*
X98961069Y-79650892D01*
X98961069Y-79650892D02*
X98961069Y-79936606D01*
X98961069Y-79936606D02*
X98913450Y-80031844D01*
X98913450Y-80031844D02*
X98865830Y-80079463D01*
X63563392Y-38473330D02*
X63515773Y-38520950D01*
X63515773Y-38520950D02*
X63372916Y-38568569D01*
X63372916Y-38568569D02*
X63277678Y-38568569D01*
X63277678Y-38568569D02*
X63134821Y-38520950D01*
X63134821Y-38520950D02*
X63039583Y-38425711D01*
X63039583Y-38425711D02*
X62991964Y-38330473D01*
X62991964Y-38330473D02*
X62944345Y-38139997D01*
X62944345Y-38139997D02*
X62944345Y-37997140D01*
X62944345Y-37997140D02*
X62991964Y-37806664D01*
X62991964Y-37806664D02*
X63039583Y-37711426D01*
X63039583Y-37711426D02*
X63134821Y-37616188D01*
X63134821Y-37616188D02*
X63277678Y-37568569D01*
X63277678Y-37568569D02*
X63372916Y-37568569D01*
X63372916Y-37568569D02*
X63515773Y-37616188D01*
X63515773Y-37616188D02*
X63563392Y-37663807D01*
X64515773Y-38568569D02*
X63944345Y-38568569D01*
X64230059Y-38568569D02*
X64230059Y-37568569D01*
X64230059Y-37568569D02*
X64134821Y-37711426D01*
X64134821Y-37711426D02*
X64039583Y-37806664D01*
X64039583Y-37806664D02*
X63944345Y-37854283D01*
X65420535Y-37568569D02*
X64944345Y-37568569D01*
X64944345Y-37568569D02*
X64896726Y-38044759D01*
X64896726Y-38044759D02*
X64944345Y-37997140D01*
X64944345Y-37997140D02*
X65039583Y-37949521D01*
X65039583Y-37949521D02*
X65277678Y-37949521D01*
X65277678Y-37949521D02*
X65372916Y-37997140D01*
X65372916Y-37997140D02*
X65420535Y-38044759D01*
X65420535Y-38044759D02*
X65468154Y-38139997D01*
X65468154Y-38139997D02*
X65468154Y-38378092D01*
X65468154Y-38378092D02*
X65420535Y-38473330D01*
X65420535Y-38473330D02*
X65372916Y-38520950D01*
X65372916Y-38520950D02*
X65277678Y-38568569D01*
X65277678Y-38568569D02*
X65039583Y-38568569D01*
X65039583Y-38568569D02*
X64944345Y-38520950D01*
X64944345Y-38520950D02*
X64896726Y-38473330D01*
X83161069Y-43055654D02*
X83970592Y-43055654D01*
X83970592Y-43055654D02*
X84065830Y-43008035D01*
X84065830Y-43008035D02*
X84113450Y-42960416D01*
X84113450Y-42960416D02*
X84161069Y-42865178D01*
X84161069Y-42865178D02*
X84161069Y-42674702D01*
X84161069Y-42674702D02*
X84113450Y-42579464D01*
X84113450Y-42579464D02*
X84065830Y-42531845D01*
X84065830Y-42531845D02*
X83970592Y-42484226D01*
X83970592Y-42484226D02*
X83161069Y-42484226D01*
X84161069Y-41484226D02*
X84161069Y-42055654D01*
X84161069Y-41769940D02*
X83161069Y-41769940D01*
X83161069Y-41769940D02*
X83303926Y-41865178D01*
X83303926Y-41865178D02*
X83399164Y-41960416D01*
X83399164Y-41960416D02*
X83446783Y-42055654D01*
X81563392Y-49153330D02*
X81515773Y-49200950D01*
X81515773Y-49200950D02*
X81372916Y-49248569D01*
X81372916Y-49248569D02*
X81277678Y-49248569D01*
X81277678Y-49248569D02*
X81134821Y-49200950D01*
X81134821Y-49200950D02*
X81039583Y-49105711D01*
X81039583Y-49105711D02*
X80991964Y-49010473D01*
X80991964Y-49010473D02*
X80944345Y-48819997D01*
X80944345Y-48819997D02*
X80944345Y-48677140D01*
X80944345Y-48677140D02*
X80991964Y-48486664D01*
X80991964Y-48486664D02*
X81039583Y-48391426D01*
X81039583Y-48391426D02*
X81134821Y-48296188D01*
X81134821Y-48296188D02*
X81277678Y-48248569D01*
X81277678Y-48248569D02*
X81372916Y-48248569D01*
X81372916Y-48248569D02*
X81515773Y-48296188D01*
X81515773Y-48296188D02*
X81563392Y-48343807D01*
X82515773Y-49248569D02*
X81944345Y-49248569D01*
X82230059Y-49248569D02*
X82230059Y-48248569D01*
X82230059Y-48248569D02*
X82134821Y-48391426D01*
X82134821Y-48391426D02*
X82039583Y-48486664D01*
X82039583Y-48486664D02*
X81944345Y-48534283D01*
X82896726Y-48343807D02*
X82944345Y-48296188D01*
X82944345Y-48296188D02*
X83039583Y-48248569D01*
X83039583Y-48248569D02*
X83277678Y-48248569D01*
X83277678Y-48248569D02*
X83372916Y-48296188D01*
X83372916Y-48296188D02*
X83420535Y-48343807D01*
X83420535Y-48343807D02*
X83468154Y-48439045D01*
X83468154Y-48439045D02*
X83468154Y-48534283D01*
X83468154Y-48534283D02*
X83420535Y-48677140D01*
X83420535Y-48677140D02*
X82849107Y-49248569D01*
X82849107Y-49248569D02*
X83468154Y-49248569D01*
X77661069Y-39555654D02*
X78470592Y-39555654D01*
X78470592Y-39555654D02*
X78565830Y-39508035D01*
X78565830Y-39508035D02*
X78613450Y-39460416D01*
X78613450Y-39460416D02*
X78661069Y-39365178D01*
X78661069Y-39365178D02*
X78661069Y-39174702D01*
X78661069Y-39174702D02*
X78613450Y-39079464D01*
X78613450Y-39079464D02*
X78565830Y-39031845D01*
X78565830Y-39031845D02*
X78470592Y-38984226D01*
X78470592Y-38984226D02*
X77661069Y-38984226D01*
X77661069Y-38031845D02*
X77661069Y-38508035D01*
X77661069Y-38508035D02*
X78137259Y-38555654D01*
X78137259Y-38555654D02*
X78089640Y-38508035D01*
X78089640Y-38508035D02*
X78042021Y-38412797D01*
X78042021Y-38412797D02*
X78042021Y-38174702D01*
X78042021Y-38174702D02*
X78089640Y-38079464D01*
X78089640Y-38079464D02*
X78137259Y-38031845D01*
X78137259Y-38031845D02*
X78232497Y-37984226D01*
X78232497Y-37984226D02*
X78470592Y-37984226D01*
X78470592Y-37984226D02*
X78565830Y-38031845D01*
X78565830Y-38031845D02*
X78613450Y-38079464D01*
X78613450Y-38079464D02*
X78661069Y-38174702D01*
X78661069Y-38174702D02*
X78661069Y-38412797D01*
X78661069Y-38412797D02*
X78613450Y-38508035D01*
X78613450Y-38508035D02*
X78565830Y-38555654D01*
X80495892Y-60493330D02*
X80448273Y-60540950D01*
X80448273Y-60540950D02*
X80305416Y-60588569D01*
X80305416Y-60588569D02*
X80210178Y-60588569D01*
X80210178Y-60588569D02*
X80067321Y-60540950D01*
X80067321Y-60540950D02*
X79972083Y-60445711D01*
X79972083Y-60445711D02*
X79924464Y-60350473D01*
X79924464Y-60350473D02*
X79876845Y-60159997D01*
X79876845Y-60159997D02*
X79876845Y-60017140D01*
X79876845Y-60017140D02*
X79924464Y-59826664D01*
X79924464Y-59826664D02*
X79972083Y-59731426D01*
X79972083Y-59731426D02*
X80067321Y-59636188D01*
X80067321Y-59636188D02*
X80210178Y-59588569D01*
X80210178Y-59588569D02*
X80305416Y-59588569D01*
X80305416Y-59588569D02*
X80448273Y-59636188D01*
X80448273Y-59636188D02*
X80495892Y-59683807D01*
X81448273Y-60588569D02*
X80876845Y-60588569D01*
X81162559Y-60588569D02*
X81162559Y-59588569D01*
X81162559Y-59588569D02*
X81067321Y-59731426D01*
X81067321Y-59731426D02*
X80972083Y-59826664D01*
X80972083Y-59826664D02*
X80876845Y-59874283D01*
X81781607Y-59588569D02*
X82448273Y-59588569D01*
X82448273Y-59588569D02*
X82019702Y-60588569D01*
X103425720Y-80065086D02*
X103473340Y-80112705D01*
X103473340Y-80112705D02*
X103520959Y-80255562D01*
X103520959Y-80255562D02*
X103520959Y-80350800D01*
X103520959Y-80350800D02*
X103473340Y-80493657D01*
X103473340Y-80493657D02*
X103378101Y-80588895D01*
X103378101Y-80588895D02*
X103282863Y-80636514D01*
X103282863Y-80636514D02*
X103092387Y-80684133D01*
X103092387Y-80684133D02*
X102949530Y-80684133D01*
X102949530Y-80684133D02*
X102759054Y-80636514D01*
X102759054Y-80636514D02*
X102663816Y-80588895D01*
X102663816Y-80588895D02*
X102568578Y-80493657D01*
X102568578Y-80493657D02*
X102520959Y-80350800D01*
X102520959Y-80350800D02*
X102520959Y-80255562D01*
X102520959Y-80255562D02*
X102568578Y-80112705D01*
X102568578Y-80112705D02*
X102616197Y-80065086D01*
X102520959Y-79731752D02*
X102520959Y-79065086D01*
X102520959Y-79065086D02*
X103520959Y-79493657D01*
X102902368Y-77490196D02*
X102949988Y-77537815D01*
X102949988Y-77537815D02*
X102997607Y-77680672D01*
X102997607Y-77680672D02*
X102997607Y-77775910D01*
X102997607Y-77775910D02*
X102949988Y-77918767D01*
X102949988Y-77918767D02*
X102854749Y-78014005D01*
X102854749Y-78014005D02*
X102759511Y-78061624D01*
X102759511Y-78061624D02*
X102569035Y-78109243D01*
X102569035Y-78109243D02*
X102426178Y-78109243D01*
X102426178Y-78109243D02*
X102235702Y-78061624D01*
X102235702Y-78061624D02*
X102140464Y-78014005D01*
X102140464Y-78014005D02*
X102045226Y-77918767D01*
X102045226Y-77918767D02*
X101997607Y-77775910D01*
X101997607Y-77775910D02*
X101997607Y-77680672D01*
X101997607Y-77680672D02*
X102045226Y-77537815D01*
X102045226Y-77537815D02*
X102092845Y-77490196D01*
X102426178Y-76918767D02*
X102378559Y-77014005D01*
X102378559Y-77014005D02*
X102330940Y-77061624D01*
X102330940Y-77061624D02*
X102235702Y-77109243D01*
X102235702Y-77109243D02*
X102188083Y-77109243D01*
X102188083Y-77109243D02*
X102092845Y-77061624D01*
X102092845Y-77061624D02*
X102045226Y-77014005D01*
X102045226Y-77014005D02*
X101997607Y-76918767D01*
X101997607Y-76918767D02*
X101997607Y-76728291D01*
X101997607Y-76728291D02*
X102045226Y-76633053D01*
X102045226Y-76633053D02*
X102092845Y-76585434D01*
X102092845Y-76585434D02*
X102188083Y-76537815D01*
X102188083Y-76537815D02*
X102235702Y-76537815D01*
X102235702Y-76537815D02*
X102330940Y-76585434D01*
X102330940Y-76585434D02*
X102378559Y-76633053D01*
X102378559Y-76633053D02*
X102426178Y-76728291D01*
X102426178Y-76728291D02*
X102426178Y-76918767D01*
X102426178Y-76918767D02*
X102473797Y-77014005D01*
X102473797Y-77014005D02*
X102521416Y-77061624D01*
X102521416Y-77061624D02*
X102616654Y-77109243D01*
X102616654Y-77109243D02*
X102807130Y-77109243D01*
X102807130Y-77109243D02*
X102902368Y-77061624D01*
X102902368Y-77061624D02*
X102949988Y-77014005D01*
X102949988Y-77014005D02*
X102997607Y-76918767D01*
X102997607Y-76918767D02*
X102997607Y-76728291D01*
X102997607Y-76728291D02*
X102949988Y-76633053D01*
X102949988Y-76633053D02*
X102902368Y-76585434D01*
X102902368Y-76585434D02*
X102807130Y-76537815D01*
X102807130Y-76537815D02*
X102616654Y-76537815D01*
X102616654Y-76537815D02*
X102521416Y-76585434D01*
X102521416Y-76585434D02*
X102473797Y-76633053D01*
X102473797Y-76633053D02*
X102426178Y-76728291D01*
X61786011Y-63708807D02*
X61690773Y-63661188D01*
X61690773Y-63661188D02*
X61595535Y-63565950D01*
X61595535Y-63565950D02*
X61452678Y-63423092D01*
X61452678Y-63423092D02*
X61357440Y-63375473D01*
X61357440Y-63375473D02*
X61262202Y-63375473D01*
X61309821Y-63613569D02*
X61214583Y-63565950D01*
X61214583Y-63565950D02*
X61119345Y-63470711D01*
X61119345Y-63470711D02*
X61071726Y-63280235D01*
X61071726Y-63280235D02*
X61071726Y-62946902D01*
X61071726Y-62946902D02*
X61119345Y-62756426D01*
X61119345Y-62756426D02*
X61214583Y-62661188D01*
X61214583Y-62661188D02*
X61309821Y-62613569D01*
X61309821Y-62613569D02*
X61500297Y-62613569D01*
X61500297Y-62613569D02*
X61595535Y-62661188D01*
X61595535Y-62661188D02*
X61690773Y-62756426D01*
X61690773Y-62756426D02*
X61738392Y-62946902D01*
X61738392Y-62946902D02*
X61738392Y-63280235D01*
X61738392Y-63280235D02*
X61690773Y-63470711D01*
X61690773Y-63470711D02*
X61595535Y-63565950D01*
X61595535Y-63565950D02*
X61500297Y-63613569D01*
X61500297Y-63613569D02*
X61309821Y-63613569D01*
X62119345Y-62708807D02*
X62166964Y-62661188D01*
X62166964Y-62661188D02*
X62262202Y-62613569D01*
X62262202Y-62613569D02*
X62500297Y-62613569D01*
X62500297Y-62613569D02*
X62595535Y-62661188D01*
X62595535Y-62661188D02*
X62643154Y-62708807D01*
X62643154Y-62708807D02*
X62690773Y-62804045D01*
X62690773Y-62804045D02*
X62690773Y-62899283D01*
X62690773Y-62899283D02*
X62643154Y-63042140D01*
X62643154Y-63042140D02*
X62071726Y-63613569D01*
X62071726Y-63613569D02*
X62690773Y-63613569D01*
X103651636Y-57165966D02*
X103604017Y-57261204D01*
X103604017Y-57261204D02*
X103508779Y-57356442D01*
X103508779Y-57356442D02*
X103365921Y-57499299D01*
X103365921Y-57499299D02*
X103318302Y-57594537D01*
X103318302Y-57594537D02*
X103318302Y-57689775D01*
X103556398Y-57642156D02*
X103508779Y-57737394D01*
X103508779Y-57737394D02*
X103413540Y-57832632D01*
X103413540Y-57832632D02*
X103223064Y-57880251D01*
X103223064Y-57880251D02*
X102889731Y-57880251D01*
X102889731Y-57880251D02*
X102699255Y-57832632D01*
X102699255Y-57832632D02*
X102604017Y-57737394D01*
X102604017Y-57737394D02*
X102556398Y-57642156D01*
X102556398Y-57642156D02*
X102556398Y-57451680D01*
X102556398Y-57451680D02*
X102604017Y-57356442D01*
X102604017Y-57356442D02*
X102699255Y-57261204D01*
X102699255Y-57261204D02*
X102889731Y-57213585D01*
X102889731Y-57213585D02*
X103223064Y-57213585D01*
X103223064Y-57213585D02*
X103413540Y-57261204D01*
X103413540Y-57261204D02*
X103508779Y-57356442D01*
X103508779Y-57356442D02*
X103556398Y-57451680D01*
X103556398Y-57451680D02*
X103556398Y-57642156D01*
X103556398Y-56261204D02*
X103556398Y-56832632D01*
X103556398Y-56546918D02*
X102556398Y-56546918D01*
X102556398Y-56546918D02*
X102699255Y-56642156D01*
X102699255Y-56642156D02*
X102794493Y-56737394D01*
X102794493Y-56737394D02*
X102842112Y-56832632D01*
X74905830Y-64504107D02*
X74953450Y-64551726D01*
X74953450Y-64551726D02*
X75001069Y-64694583D01*
X75001069Y-64694583D02*
X75001069Y-64789821D01*
X75001069Y-64789821D02*
X74953450Y-64932678D01*
X74953450Y-64932678D02*
X74858211Y-65027916D01*
X74858211Y-65027916D02*
X74762973Y-65075535D01*
X74762973Y-65075535D02*
X74572497Y-65123154D01*
X74572497Y-65123154D02*
X74429640Y-65123154D01*
X74429640Y-65123154D02*
X74239164Y-65075535D01*
X74239164Y-65075535D02*
X74143926Y-65027916D01*
X74143926Y-65027916D02*
X74048688Y-64932678D01*
X74048688Y-64932678D02*
X74001069Y-64789821D01*
X74001069Y-64789821D02*
X74001069Y-64694583D01*
X74001069Y-64694583D02*
X74048688Y-64551726D01*
X74048688Y-64551726D02*
X74096307Y-64504107D01*
X75001069Y-63551726D02*
X75001069Y-64123154D01*
X75001069Y-63837440D02*
X74001069Y-63837440D01*
X74001069Y-63837440D02*
X74143926Y-63932678D01*
X74143926Y-63932678D02*
X74239164Y-64027916D01*
X74239164Y-64027916D02*
X74286783Y-64123154D01*
X74001069Y-62694583D02*
X74001069Y-62885059D01*
X74001069Y-62885059D02*
X74048688Y-62980297D01*
X74048688Y-62980297D02*
X74096307Y-63027916D01*
X74096307Y-63027916D02*
X74239164Y-63123154D01*
X74239164Y-63123154D02*
X74429640Y-63170773D01*
X74429640Y-63170773D02*
X74810592Y-63170773D01*
X74810592Y-63170773D02*
X74905830Y-63123154D01*
X74905830Y-63123154D02*
X74953450Y-63075535D01*
X74953450Y-63075535D02*
X75001069Y-62980297D01*
X75001069Y-62980297D02*
X75001069Y-62789821D01*
X75001069Y-62789821D02*
X74953450Y-62694583D01*
X74953450Y-62694583D02*
X74905830Y-62646964D01*
X74905830Y-62646964D02*
X74810592Y-62599345D01*
X74810592Y-62599345D02*
X74572497Y-62599345D01*
X74572497Y-62599345D02*
X74477259Y-62646964D01*
X74477259Y-62646964D02*
X74429640Y-62694583D01*
X74429640Y-62694583D02*
X74382021Y-62789821D01*
X74382021Y-62789821D02*
X74382021Y-62980297D01*
X74382021Y-62980297D02*
X74429640Y-63075535D01*
X74429640Y-63075535D02*
X74477259Y-63123154D01*
X74477259Y-63123154D02*
X74572497Y-63170773D01*
X124444345Y-99848569D02*
X124444345Y-98848569D01*
X124444345Y-99324759D02*
X125015773Y-99324759D01*
X125015773Y-99848569D02*
X125015773Y-98848569D01*
X125920535Y-99181902D02*
X125920535Y-99848569D01*
X125682440Y-98800950D02*
X125444345Y-99515235D01*
X125444345Y-99515235D02*
X126063392Y-99515235D01*
X109444345Y-80748569D02*
X109444345Y-81558092D01*
X109444345Y-81558092D02*
X109491964Y-81653330D01*
X109491964Y-81653330D02*
X109539583Y-81700950D01*
X109539583Y-81700950D02*
X109634821Y-81748569D01*
X109634821Y-81748569D02*
X109825297Y-81748569D01*
X109825297Y-81748569D02*
X109920535Y-81700950D01*
X109920535Y-81700950D02*
X109968154Y-81653330D01*
X109968154Y-81653330D02*
X110015773Y-81558092D01*
X110015773Y-81558092D02*
X110015773Y-80748569D01*
X110444345Y-80843807D02*
X110491964Y-80796188D01*
X110491964Y-80796188D02*
X110587202Y-80748569D01*
X110587202Y-80748569D02*
X110825297Y-80748569D01*
X110825297Y-80748569D02*
X110920535Y-80796188D01*
X110920535Y-80796188D02*
X110968154Y-80843807D01*
X110968154Y-80843807D02*
X111015773Y-80939045D01*
X111015773Y-80939045D02*
X111015773Y-81034283D01*
X111015773Y-81034283D02*
X110968154Y-81177140D01*
X110968154Y-81177140D02*
X110396726Y-81748569D01*
X110396726Y-81748569D02*
X111015773Y-81748569D01*
X54761069Y-67627083D02*
X55475354Y-67627083D01*
X55475354Y-67627083D02*
X55618211Y-67674702D01*
X55618211Y-67674702D02*
X55713450Y-67769940D01*
X55713450Y-67769940D02*
X55761069Y-67912797D01*
X55761069Y-67912797D02*
X55761069Y-68008035D01*
X54856307Y-67198511D02*
X54808688Y-67150892D01*
X54808688Y-67150892D02*
X54761069Y-67055654D01*
X54761069Y-67055654D02*
X54761069Y-66817559D01*
X54761069Y-66817559D02*
X54808688Y-66722321D01*
X54808688Y-66722321D02*
X54856307Y-66674702D01*
X54856307Y-66674702D02*
X54951545Y-66627083D01*
X54951545Y-66627083D02*
X55046783Y-66627083D01*
X55046783Y-66627083D02*
X55189640Y-66674702D01*
X55189640Y-66674702D02*
X55761069Y-67246130D01*
X55761069Y-67246130D02*
X55761069Y-66627083D01*
X59150892Y-55818569D02*
X58817559Y-55342378D01*
X58579464Y-55818569D02*
X58579464Y-54818569D01*
X58579464Y-54818569D02*
X58960416Y-54818569D01*
X58960416Y-54818569D02*
X59055654Y-54866188D01*
X59055654Y-54866188D02*
X59103273Y-54913807D01*
X59103273Y-54913807D02*
X59150892Y-55009045D01*
X59150892Y-55009045D02*
X59150892Y-55151902D01*
X59150892Y-55151902D02*
X59103273Y-55247140D01*
X59103273Y-55247140D02*
X59055654Y-55294759D01*
X59055654Y-55294759D02*
X58960416Y-55342378D01*
X58960416Y-55342378D02*
X58579464Y-55342378D01*
X60103273Y-55818569D02*
X59531845Y-55818569D01*
X59817559Y-55818569D02*
X59817559Y-54818569D01*
X59817559Y-54818569D02*
X59722321Y-54961426D01*
X59722321Y-54961426D02*
X59627083Y-55056664D01*
X59627083Y-55056664D02*
X59531845Y-55104283D01*
X61055654Y-55818569D02*
X60484226Y-55818569D01*
X60769940Y-55818569D02*
X60769940Y-54818569D01*
X60769940Y-54818569D02*
X60674702Y-54961426D01*
X60674702Y-54961426D02*
X60579464Y-55056664D01*
X60579464Y-55056664D02*
X60484226Y-55104283D01*
X67444345Y-31348569D02*
X67444345Y-30348569D01*
X67444345Y-30824759D02*
X68015773Y-30824759D01*
X68015773Y-31348569D02*
X68015773Y-30348569D01*
X69015773Y-31348569D02*
X68444345Y-31348569D01*
X68730059Y-31348569D02*
X68730059Y-30348569D01*
X68730059Y-30348569D02*
X68634821Y-30491426D01*
X68634821Y-30491426D02*
X68539583Y-30586664D01*
X68539583Y-30586664D02*
X68444345Y-30634283D01*
X108661069Y-50460416D02*
X108184878Y-50793749D01*
X108661069Y-51031844D02*
X107661069Y-51031844D01*
X107661069Y-51031844D02*
X107661069Y-50650892D01*
X107661069Y-50650892D02*
X107708688Y-50555654D01*
X107708688Y-50555654D02*
X107756307Y-50508035D01*
X107756307Y-50508035D02*
X107851545Y-50460416D01*
X107851545Y-50460416D02*
X107994402Y-50460416D01*
X107994402Y-50460416D02*
X108089640Y-50508035D01*
X108089640Y-50508035D02*
X108137259Y-50555654D01*
X108137259Y-50555654D02*
X108184878Y-50650892D01*
X108184878Y-50650892D02*
X108184878Y-51031844D01*
X107756307Y-50079463D02*
X107708688Y-50031844D01*
X107708688Y-50031844D02*
X107661069Y-49936606D01*
X107661069Y-49936606D02*
X107661069Y-49698511D01*
X107661069Y-49698511D02*
X107708688Y-49603273D01*
X107708688Y-49603273D02*
X107756307Y-49555654D01*
X107756307Y-49555654D02*
X107851545Y-49508035D01*
X107851545Y-49508035D02*
X107946783Y-49508035D01*
X107946783Y-49508035D02*
X108089640Y-49555654D01*
X108089640Y-49555654D02*
X108661069Y-50127082D01*
X108661069Y-50127082D02*
X108661069Y-49508035D01*
X115313450Y-48627082D02*
X115361069Y-48484225D01*
X115361069Y-48484225D02*
X115361069Y-48246130D01*
X115361069Y-48246130D02*
X115313450Y-48150892D01*
X115313450Y-48150892D02*
X115265830Y-48103273D01*
X115265830Y-48103273D02*
X115170592Y-48055654D01*
X115170592Y-48055654D02*
X115075354Y-48055654D01*
X115075354Y-48055654D02*
X114980116Y-48103273D01*
X114980116Y-48103273D02*
X114932497Y-48150892D01*
X114932497Y-48150892D02*
X114884878Y-48246130D01*
X114884878Y-48246130D02*
X114837259Y-48436606D01*
X114837259Y-48436606D02*
X114789640Y-48531844D01*
X114789640Y-48531844D02*
X114742021Y-48579463D01*
X114742021Y-48579463D02*
X114646783Y-48627082D01*
X114646783Y-48627082D02*
X114551545Y-48627082D01*
X114551545Y-48627082D02*
X114456307Y-48579463D01*
X114456307Y-48579463D02*
X114408688Y-48531844D01*
X114408688Y-48531844D02*
X114361069Y-48436606D01*
X114361069Y-48436606D02*
X114361069Y-48198511D01*
X114361069Y-48198511D02*
X114408688Y-48055654D01*
X114361069Y-47722320D02*
X115361069Y-47484225D01*
X115361069Y-47484225D02*
X114646783Y-47293749D01*
X114646783Y-47293749D02*
X115361069Y-47103273D01*
X115361069Y-47103273D02*
X114361069Y-46865178D01*
X114694402Y-46055654D02*
X115361069Y-46055654D01*
X114313450Y-46293749D02*
X115027735Y-46531844D01*
X115027735Y-46531844D02*
X115027735Y-45912797D01*
X95539583Y-91153330D02*
X95491964Y-91200950D01*
X95491964Y-91200950D02*
X95349107Y-91248569D01*
X95349107Y-91248569D02*
X95253869Y-91248569D01*
X95253869Y-91248569D02*
X95111012Y-91200950D01*
X95111012Y-91200950D02*
X95015774Y-91105711D01*
X95015774Y-91105711D02*
X94968155Y-91010473D01*
X94968155Y-91010473D02*
X94920536Y-90819997D01*
X94920536Y-90819997D02*
X94920536Y-90677140D01*
X94920536Y-90677140D02*
X94968155Y-90486664D01*
X94968155Y-90486664D02*
X95015774Y-90391426D01*
X95015774Y-90391426D02*
X95111012Y-90296188D01*
X95111012Y-90296188D02*
X95253869Y-90248569D01*
X95253869Y-90248569D02*
X95349107Y-90248569D01*
X95349107Y-90248569D02*
X95491964Y-90296188D01*
X95491964Y-90296188D02*
X95539583Y-90343807D01*
X96491964Y-91248569D02*
X95920536Y-91248569D01*
X96206250Y-91248569D02*
X96206250Y-90248569D01*
X96206250Y-90248569D02*
X96111012Y-90391426D01*
X96111012Y-90391426D02*
X96015774Y-90486664D01*
X96015774Y-90486664D02*
X95920536Y-90534283D01*
X95539583Y-94153330D02*
X95491964Y-94200950D01*
X95491964Y-94200950D02*
X95349107Y-94248569D01*
X95349107Y-94248569D02*
X95253869Y-94248569D01*
X95253869Y-94248569D02*
X95111012Y-94200950D01*
X95111012Y-94200950D02*
X95015774Y-94105711D01*
X95015774Y-94105711D02*
X94968155Y-94010473D01*
X94968155Y-94010473D02*
X94920536Y-93819997D01*
X94920536Y-93819997D02*
X94920536Y-93677140D01*
X94920536Y-93677140D02*
X94968155Y-93486664D01*
X94968155Y-93486664D02*
X95015774Y-93391426D01*
X95015774Y-93391426D02*
X95111012Y-93296188D01*
X95111012Y-93296188D02*
X95253869Y-93248569D01*
X95253869Y-93248569D02*
X95349107Y-93248569D01*
X95349107Y-93248569D02*
X95491964Y-93296188D01*
X95491964Y-93296188D02*
X95539583Y-93343807D01*
X95920536Y-93343807D02*
X95968155Y-93296188D01*
X95968155Y-93296188D02*
X96063393Y-93248569D01*
X96063393Y-93248569D02*
X96301488Y-93248569D01*
X96301488Y-93248569D02*
X96396726Y-93296188D01*
X96396726Y-93296188D02*
X96444345Y-93343807D01*
X96444345Y-93343807D02*
X96491964Y-93439045D01*
X96491964Y-93439045D02*
X96491964Y-93534283D01*
X96491964Y-93534283D02*
X96444345Y-93677140D01*
X96444345Y-93677140D02*
X95872917Y-94248569D01*
X95872917Y-94248569D02*
X96491964Y-94248569D01*
X97539583Y-49153330D02*
X97491964Y-49200950D01*
X97491964Y-49200950D02*
X97349107Y-49248569D01*
X97349107Y-49248569D02*
X97253869Y-49248569D01*
X97253869Y-49248569D02*
X97111012Y-49200950D01*
X97111012Y-49200950D02*
X97015774Y-49105711D01*
X97015774Y-49105711D02*
X96968155Y-49010473D01*
X96968155Y-49010473D02*
X96920536Y-48819997D01*
X96920536Y-48819997D02*
X96920536Y-48677140D01*
X96920536Y-48677140D02*
X96968155Y-48486664D01*
X96968155Y-48486664D02*
X97015774Y-48391426D01*
X97015774Y-48391426D02*
X97111012Y-48296188D01*
X97111012Y-48296188D02*
X97253869Y-48248569D01*
X97253869Y-48248569D02*
X97349107Y-48248569D01*
X97349107Y-48248569D02*
X97491964Y-48296188D01*
X97491964Y-48296188D02*
X97539583Y-48343807D01*
X98444345Y-48248569D02*
X97968155Y-48248569D01*
X97968155Y-48248569D02*
X97920536Y-48724759D01*
X97920536Y-48724759D02*
X97968155Y-48677140D01*
X97968155Y-48677140D02*
X98063393Y-48629521D01*
X98063393Y-48629521D02*
X98301488Y-48629521D01*
X98301488Y-48629521D02*
X98396726Y-48677140D01*
X98396726Y-48677140D02*
X98444345Y-48724759D01*
X98444345Y-48724759D02*
X98491964Y-48819997D01*
X98491964Y-48819997D02*
X98491964Y-49058092D01*
X98491964Y-49058092D02*
X98444345Y-49153330D01*
X98444345Y-49153330D02*
X98396726Y-49200950D01*
X98396726Y-49200950D02*
X98301488Y-49248569D01*
X98301488Y-49248569D02*
X98063393Y-49248569D01*
X98063393Y-49248569D02*
X97968155Y-49200950D01*
X97968155Y-49200950D02*
X97920536Y-49153330D01*
X89039583Y-36748569D02*
X88706250Y-36272378D01*
X88468155Y-36748569D02*
X88468155Y-35748569D01*
X88468155Y-35748569D02*
X88849107Y-35748569D01*
X88849107Y-35748569D02*
X88944345Y-35796188D01*
X88944345Y-35796188D02*
X88991964Y-35843807D01*
X88991964Y-35843807D02*
X89039583Y-35939045D01*
X89039583Y-35939045D02*
X89039583Y-36081902D01*
X89039583Y-36081902D02*
X88991964Y-36177140D01*
X88991964Y-36177140D02*
X88944345Y-36224759D01*
X88944345Y-36224759D02*
X88849107Y-36272378D01*
X88849107Y-36272378D02*
X88468155Y-36272378D01*
X89896726Y-36081902D02*
X89896726Y-36748569D01*
X89658631Y-35700950D02*
X89420536Y-36415235D01*
X89420536Y-36415235D02*
X90039583Y-36415235D01*
X117039583Y-55916599D02*
X116991964Y-55964219D01*
X116991964Y-55964219D02*
X116849107Y-56011838D01*
X116849107Y-56011838D02*
X116753869Y-56011838D01*
X116753869Y-56011838D02*
X116611012Y-55964219D01*
X116611012Y-55964219D02*
X116515774Y-55868980D01*
X116515774Y-55868980D02*
X116468155Y-55773742D01*
X116468155Y-55773742D02*
X116420536Y-55583266D01*
X116420536Y-55583266D02*
X116420536Y-55440409D01*
X116420536Y-55440409D02*
X116468155Y-55249933D01*
X116468155Y-55249933D02*
X116515774Y-55154695D01*
X116515774Y-55154695D02*
X116611012Y-55059457D01*
X116611012Y-55059457D02*
X116753869Y-55011838D01*
X116753869Y-55011838D02*
X116849107Y-55011838D01*
X116849107Y-55011838D02*
X116991964Y-55059457D01*
X116991964Y-55059457D02*
X117039583Y-55107076D01*
X117372917Y-55011838D02*
X117991964Y-55011838D01*
X117991964Y-55011838D02*
X117658631Y-55392790D01*
X117658631Y-55392790D02*
X117801488Y-55392790D01*
X117801488Y-55392790D02*
X117896726Y-55440409D01*
X117896726Y-55440409D02*
X117944345Y-55488028D01*
X117944345Y-55488028D02*
X117991964Y-55583266D01*
X117991964Y-55583266D02*
X117991964Y-55821361D01*
X117991964Y-55821361D02*
X117944345Y-55916599D01*
X117944345Y-55916599D02*
X117896726Y-55964219D01*
X117896726Y-55964219D02*
X117801488Y-56011838D01*
X117801488Y-56011838D02*
X117515774Y-56011838D01*
X117515774Y-56011838D02*
X117420536Y-55964219D01*
X117420536Y-55964219D02*
X117372917Y-55916599D01*
X53261905Y-42954819D02*
X53261905Y-41954819D01*
X53261905Y-41954819D02*
X53500000Y-41954819D01*
X53500000Y-41954819D02*
X53642857Y-42002438D01*
X53642857Y-42002438D02*
X53738095Y-42097676D01*
X53738095Y-42097676D02*
X53785714Y-42192914D01*
X53785714Y-42192914D02*
X53833333Y-42383390D01*
X53833333Y-42383390D02*
X53833333Y-42526247D01*
X53833333Y-42526247D02*
X53785714Y-42716723D01*
X53785714Y-42716723D02*
X53738095Y-42811961D01*
X53738095Y-42811961D02*
X53642857Y-42907200D01*
X53642857Y-42907200D02*
X53500000Y-42954819D01*
X53500000Y-42954819D02*
X53261905Y-42954819D01*
X54785714Y-42954819D02*
X54214286Y-42954819D01*
X54500000Y-42954819D02*
X54500000Y-41954819D01*
X54500000Y-41954819D02*
X54404762Y-42097676D01*
X54404762Y-42097676D02*
X54309524Y-42192914D01*
X54309524Y-42192914D02*
X54214286Y-42240533D01*
X111661069Y-50460416D02*
X111184878Y-50793749D01*
X111661069Y-51031844D02*
X110661069Y-51031844D01*
X110661069Y-51031844D02*
X110661069Y-50650892D01*
X110661069Y-50650892D02*
X110708688Y-50555654D01*
X110708688Y-50555654D02*
X110756307Y-50508035D01*
X110756307Y-50508035D02*
X110851545Y-50460416D01*
X110851545Y-50460416D02*
X110994402Y-50460416D01*
X110994402Y-50460416D02*
X111089640Y-50508035D01*
X111089640Y-50508035D02*
X111137259Y-50555654D01*
X111137259Y-50555654D02*
X111184878Y-50650892D01*
X111184878Y-50650892D02*
X111184878Y-51031844D01*
X110661069Y-50127082D02*
X110661069Y-49508035D01*
X110661069Y-49508035D02*
X111042021Y-49841368D01*
X111042021Y-49841368D02*
X111042021Y-49698511D01*
X111042021Y-49698511D02*
X111089640Y-49603273D01*
X111089640Y-49603273D02*
X111137259Y-49555654D01*
X111137259Y-49555654D02*
X111232497Y-49508035D01*
X111232497Y-49508035D02*
X111470592Y-49508035D01*
X111470592Y-49508035D02*
X111565830Y-49555654D01*
X111565830Y-49555654D02*
X111613450Y-49603273D01*
X111613450Y-49603273D02*
X111661069Y-49698511D01*
X111661069Y-49698511D02*
X111661069Y-49984225D01*
X111661069Y-49984225D02*
X111613450Y-50079463D01*
X111613450Y-50079463D02*
X111565830Y-50127082D01*
X58944345Y-24923569D02*
X58944345Y-25733092D01*
X58944345Y-25733092D02*
X58991964Y-25828330D01*
X58991964Y-25828330D02*
X59039583Y-25875950D01*
X59039583Y-25875950D02*
X59134821Y-25923569D01*
X59134821Y-25923569D02*
X59325297Y-25923569D01*
X59325297Y-25923569D02*
X59420535Y-25875950D01*
X59420535Y-25875950D02*
X59468154Y-25828330D01*
X59468154Y-25828330D02*
X59515773Y-25733092D01*
X59515773Y-25733092D02*
X59515773Y-24923569D01*
X59896726Y-24923569D02*
X60563392Y-24923569D01*
X60563392Y-24923569D02*
X60134821Y-25923569D01*
X89231543Y-65914261D02*
X89279163Y-65961880D01*
X89279163Y-65961880D02*
X89326782Y-66104737D01*
X89326782Y-66104737D02*
X89326782Y-66199975D01*
X89326782Y-66199975D02*
X89279163Y-66342832D01*
X89279163Y-66342832D02*
X89183924Y-66438070D01*
X89183924Y-66438070D02*
X89088686Y-66485689D01*
X89088686Y-66485689D02*
X88898210Y-66533308D01*
X88898210Y-66533308D02*
X88755353Y-66533308D01*
X88755353Y-66533308D02*
X88564877Y-66485689D01*
X88564877Y-66485689D02*
X88469639Y-66438070D01*
X88469639Y-66438070D02*
X88374401Y-66342832D01*
X88374401Y-66342832D02*
X88326782Y-66199975D01*
X88326782Y-66199975D02*
X88326782Y-66104737D01*
X88326782Y-66104737D02*
X88374401Y-65961880D01*
X88374401Y-65961880D02*
X88422020Y-65914261D01*
X88660115Y-65057118D02*
X89326782Y-65057118D01*
X88279163Y-65295213D02*
X88993448Y-65533308D01*
X88993448Y-65533308D02*
X88993448Y-64914261D01*
X116944345Y-76248569D02*
X116944345Y-77058092D01*
X116944345Y-77058092D02*
X116991964Y-77153330D01*
X116991964Y-77153330D02*
X117039583Y-77200950D01*
X117039583Y-77200950D02*
X117134821Y-77248569D01*
X117134821Y-77248569D02*
X117325297Y-77248569D01*
X117325297Y-77248569D02*
X117420535Y-77200950D01*
X117420535Y-77200950D02*
X117468154Y-77153330D01*
X117468154Y-77153330D02*
X117515773Y-77058092D01*
X117515773Y-77058092D02*
X117515773Y-76248569D01*
X117896726Y-76248569D02*
X118515773Y-76248569D01*
X118515773Y-76248569D02*
X118182440Y-76629521D01*
X118182440Y-76629521D02*
X118325297Y-76629521D01*
X118325297Y-76629521D02*
X118420535Y-76677140D01*
X118420535Y-76677140D02*
X118468154Y-76724759D01*
X118468154Y-76724759D02*
X118515773Y-76819997D01*
X118515773Y-76819997D02*
X118515773Y-77058092D01*
X118515773Y-77058092D02*
X118468154Y-77153330D01*
X118468154Y-77153330D02*
X118420535Y-77200950D01*
X118420535Y-77200950D02*
X118325297Y-77248569D01*
X118325297Y-77248569D02*
X118039583Y-77248569D01*
X118039583Y-77248569D02*
X117944345Y-77200950D01*
X117944345Y-77200950D02*
X117896726Y-77153330D01*
X59627083Y-52748569D02*
X59293750Y-52272378D01*
X59055655Y-52748569D02*
X59055655Y-51748569D01*
X59055655Y-51748569D02*
X59436607Y-51748569D01*
X59436607Y-51748569D02*
X59531845Y-51796188D01*
X59531845Y-51796188D02*
X59579464Y-51843807D01*
X59579464Y-51843807D02*
X59627083Y-51939045D01*
X59627083Y-51939045D02*
X59627083Y-52081902D01*
X59627083Y-52081902D02*
X59579464Y-52177140D01*
X59579464Y-52177140D02*
X59531845Y-52224759D01*
X59531845Y-52224759D02*
X59436607Y-52272378D01*
X59436607Y-52272378D02*
X59055655Y-52272378D01*
X60103274Y-52748569D02*
X60293750Y-52748569D01*
X60293750Y-52748569D02*
X60388988Y-52700950D01*
X60388988Y-52700950D02*
X60436607Y-52653330D01*
X60436607Y-52653330D02*
X60531845Y-52510473D01*
X60531845Y-52510473D02*
X60579464Y-52319997D01*
X60579464Y-52319997D02*
X60579464Y-51939045D01*
X60579464Y-51939045D02*
X60531845Y-51843807D01*
X60531845Y-51843807D02*
X60484226Y-51796188D01*
X60484226Y-51796188D02*
X60388988Y-51748569D01*
X60388988Y-51748569D02*
X60198512Y-51748569D01*
X60198512Y-51748569D02*
X60103274Y-51796188D01*
X60103274Y-51796188D02*
X60055655Y-51843807D01*
X60055655Y-51843807D02*
X60008036Y-51939045D01*
X60008036Y-51939045D02*
X60008036Y-52177140D01*
X60008036Y-52177140D02*
X60055655Y-52272378D01*
X60055655Y-52272378D02*
X60103274Y-52319997D01*
X60103274Y-52319997D02*
X60198512Y-52367616D01*
X60198512Y-52367616D02*
X60388988Y-52367616D01*
X60388988Y-52367616D02*
X60484226Y-52319997D01*
X60484226Y-52319997D02*
X60531845Y-52272378D01*
X60531845Y-52272378D02*
X60579464Y-52177140D01*
X74630892Y-40813330D02*
X74583273Y-40860950D01*
X74583273Y-40860950D02*
X74440416Y-40908569D01*
X74440416Y-40908569D02*
X74345178Y-40908569D01*
X74345178Y-40908569D02*
X74202321Y-40860950D01*
X74202321Y-40860950D02*
X74107083Y-40765711D01*
X74107083Y-40765711D02*
X74059464Y-40670473D01*
X74059464Y-40670473D02*
X74011845Y-40479997D01*
X74011845Y-40479997D02*
X74011845Y-40337140D01*
X74011845Y-40337140D02*
X74059464Y-40146664D01*
X74059464Y-40146664D02*
X74107083Y-40051426D01*
X74107083Y-40051426D02*
X74202321Y-39956188D01*
X74202321Y-39956188D02*
X74345178Y-39908569D01*
X74345178Y-39908569D02*
X74440416Y-39908569D01*
X74440416Y-39908569D02*
X74583273Y-39956188D01*
X74583273Y-39956188D02*
X74630892Y-40003807D01*
X75583273Y-40908569D02*
X75011845Y-40908569D01*
X75297559Y-40908569D02*
X75297559Y-39908569D01*
X75297559Y-39908569D02*
X75202321Y-40051426D01*
X75202321Y-40051426D02*
X75107083Y-40146664D01*
X75107083Y-40146664D02*
X75011845Y-40194283D01*
X76202321Y-39908569D02*
X76297559Y-39908569D01*
X76297559Y-39908569D02*
X76392797Y-39956188D01*
X76392797Y-39956188D02*
X76440416Y-40003807D01*
X76440416Y-40003807D02*
X76488035Y-40099045D01*
X76488035Y-40099045D02*
X76535654Y-40289521D01*
X76535654Y-40289521D02*
X76535654Y-40527616D01*
X76535654Y-40527616D02*
X76488035Y-40718092D01*
X76488035Y-40718092D02*
X76440416Y-40813330D01*
X76440416Y-40813330D02*
X76392797Y-40860950D01*
X76392797Y-40860950D02*
X76297559Y-40908569D01*
X76297559Y-40908569D02*
X76202321Y-40908569D01*
X76202321Y-40908569D02*
X76107083Y-40860950D01*
X76107083Y-40860950D02*
X76059464Y-40813330D01*
X76059464Y-40813330D02*
X76011845Y-40718092D01*
X76011845Y-40718092D02*
X75964226Y-40527616D01*
X75964226Y-40527616D02*
X75964226Y-40289521D01*
X75964226Y-40289521D02*
X76011845Y-40099045D01*
X76011845Y-40099045D02*
X76059464Y-40003807D01*
X76059464Y-40003807D02*
X76107083Y-39956188D01*
X76107083Y-39956188D02*
X76202321Y-39908569D01*
X59065830Y-37936607D02*
X59113450Y-37984226D01*
X59113450Y-37984226D02*
X59161069Y-38127083D01*
X59161069Y-38127083D02*
X59161069Y-38222321D01*
X59161069Y-38222321D02*
X59113450Y-38365178D01*
X59113450Y-38365178D02*
X59018211Y-38460416D01*
X59018211Y-38460416D02*
X58922973Y-38508035D01*
X58922973Y-38508035D02*
X58732497Y-38555654D01*
X58732497Y-38555654D02*
X58589640Y-38555654D01*
X58589640Y-38555654D02*
X58399164Y-38508035D01*
X58399164Y-38508035D02*
X58303926Y-38460416D01*
X58303926Y-38460416D02*
X58208688Y-38365178D01*
X58208688Y-38365178D02*
X58161069Y-38222321D01*
X58161069Y-38222321D02*
X58161069Y-38127083D01*
X58161069Y-38127083D02*
X58208688Y-37984226D01*
X58208688Y-37984226D02*
X58256307Y-37936607D01*
X59161069Y-36984226D02*
X59161069Y-37555654D01*
X59161069Y-37269940D02*
X58161069Y-37269940D01*
X58161069Y-37269940D02*
X58303926Y-37365178D01*
X58303926Y-37365178D02*
X58399164Y-37460416D01*
X58399164Y-37460416D02*
X58446783Y-37555654D01*
X58161069Y-36650892D02*
X58161069Y-36031845D01*
X58161069Y-36031845D02*
X58542021Y-36365178D01*
X58542021Y-36365178D02*
X58542021Y-36222321D01*
X58542021Y-36222321D02*
X58589640Y-36127083D01*
X58589640Y-36127083D02*
X58637259Y-36079464D01*
X58637259Y-36079464D02*
X58732497Y-36031845D01*
X58732497Y-36031845D02*
X58970592Y-36031845D01*
X58970592Y-36031845D02*
X59065830Y-36079464D01*
X59065830Y-36079464D02*
X59113450Y-36127083D01*
X59113450Y-36127083D02*
X59161069Y-36222321D01*
X59161069Y-36222321D02*
X59161069Y-36508035D01*
X59161069Y-36508035D02*
X59113450Y-36603273D01*
X59113450Y-36603273D02*
X59065830Y-36650892D01*
X89039583Y-38748569D02*
X88706250Y-38272378D01*
X88468155Y-38748569D02*
X88468155Y-37748569D01*
X88468155Y-37748569D02*
X88849107Y-37748569D01*
X88849107Y-37748569D02*
X88944345Y-37796188D01*
X88944345Y-37796188D02*
X88991964Y-37843807D01*
X88991964Y-37843807D02*
X89039583Y-37939045D01*
X89039583Y-37939045D02*
X89039583Y-38081902D01*
X89039583Y-38081902D02*
X88991964Y-38177140D01*
X88991964Y-38177140D02*
X88944345Y-38224759D01*
X88944345Y-38224759D02*
X88849107Y-38272378D01*
X88849107Y-38272378D02*
X88468155Y-38272378D01*
X89944345Y-37748569D02*
X89468155Y-37748569D01*
X89468155Y-37748569D02*
X89420536Y-38224759D01*
X89420536Y-38224759D02*
X89468155Y-38177140D01*
X89468155Y-38177140D02*
X89563393Y-38129521D01*
X89563393Y-38129521D02*
X89801488Y-38129521D01*
X89801488Y-38129521D02*
X89896726Y-38177140D01*
X89896726Y-38177140D02*
X89944345Y-38224759D01*
X89944345Y-38224759D02*
X89991964Y-38319997D01*
X89991964Y-38319997D02*
X89991964Y-38558092D01*
X89991964Y-38558092D02*
X89944345Y-38653330D01*
X89944345Y-38653330D02*
X89896726Y-38700950D01*
X89896726Y-38700950D02*
X89801488Y-38748569D01*
X89801488Y-38748569D02*
X89563393Y-38748569D01*
X89563393Y-38748569D02*
X89468155Y-38700950D01*
X89468155Y-38700950D02*
X89420536Y-38653330D01*
X88539583Y-47318569D02*
X88206250Y-46842378D01*
X87968155Y-47318569D02*
X87968155Y-46318569D01*
X87968155Y-46318569D02*
X88349107Y-46318569D01*
X88349107Y-46318569D02*
X88444345Y-46366188D01*
X88444345Y-46366188D02*
X88491964Y-46413807D01*
X88491964Y-46413807D02*
X88539583Y-46509045D01*
X88539583Y-46509045D02*
X88539583Y-46651902D01*
X88539583Y-46651902D02*
X88491964Y-46747140D01*
X88491964Y-46747140D02*
X88444345Y-46794759D01*
X88444345Y-46794759D02*
X88349107Y-46842378D01*
X88349107Y-46842378D02*
X87968155Y-46842378D01*
X89111012Y-46747140D02*
X89015774Y-46699521D01*
X89015774Y-46699521D02*
X88968155Y-46651902D01*
X88968155Y-46651902D02*
X88920536Y-46556664D01*
X88920536Y-46556664D02*
X88920536Y-46509045D01*
X88920536Y-46509045D02*
X88968155Y-46413807D01*
X88968155Y-46413807D02*
X89015774Y-46366188D01*
X89015774Y-46366188D02*
X89111012Y-46318569D01*
X89111012Y-46318569D02*
X89301488Y-46318569D01*
X89301488Y-46318569D02*
X89396726Y-46366188D01*
X89396726Y-46366188D02*
X89444345Y-46413807D01*
X89444345Y-46413807D02*
X89491964Y-46509045D01*
X89491964Y-46509045D02*
X89491964Y-46556664D01*
X89491964Y-46556664D02*
X89444345Y-46651902D01*
X89444345Y-46651902D02*
X89396726Y-46699521D01*
X89396726Y-46699521D02*
X89301488Y-46747140D01*
X89301488Y-46747140D02*
X89111012Y-46747140D01*
X89111012Y-46747140D02*
X89015774Y-46794759D01*
X89015774Y-46794759D02*
X88968155Y-46842378D01*
X88968155Y-46842378D02*
X88920536Y-46937616D01*
X88920536Y-46937616D02*
X88920536Y-47128092D01*
X88920536Y-47128092D02*
X88968155Y-47223330D01*
X88968155Y-47223330D02*
X89015774Y-47270950D01*
X89015774Y-47270950D02*
X89111012Y-47318569D01*
X89111012Y-47318569D02*
X89301488Y-47318569D01*
X89301488Y-47318569D02*
X89396726Y-47270950D01*
X89396726Y-47270950D02*
X89444345Y-47223330D01*
X89444345Y-47223330D02*
X89491964Y-47128092D01*
X89491964Y-47128092D02*
X89491964Y-46937616D01*
X89491964Y-46937616D02*
X89444345Y-46842378D01*
X89444345Y-46842378D02*
X89396726Y-46794759D01*
X89396726Y-46794759D02*
X89301488Y-46747140D01*
X74661069Y-34127083D02*
X75375354Y-34127083D01*
X75375354Y-34127083D02*
X75518211Y-34174702D01*
X75518211Y-34174702D02*
X75613450Y-34269940D01*
X75613450Y-34269940D02*
X75661069Y-34412797D01*
X75661069Y-34412797D02*
X75661069Y-34508035D01*
X75661069Y-33127083D02*
X75661069Y-33698511D01*
X75661069Y-33412797D02*
X74661069Y-33412797D01*
X74661069Y-33412797D02*
X74803926Y-33508035D01*
X74803926Y-33508035D02*
X74899164Y-33603273D01*
X74899164Y-33603273D02*
X74946783Y-33698511D01*
X81161069Y-96127083D02*
X81875354Y-96127083D01*
X81875354Y-96127083D02*
X82018211Y-96174702D01*
X82018211Y-96174702D02*
X82113450Y-96269940D01*
X82113450Y-96269940D02*
X82161069Y-96412797D01*
X82161069Y-96412797D02*
X82161069Y-96508035D01*
X81494402Y-95222321D02*
X82161069Y-95222321D01*
X81113450Y-95460416D02*
X81827735Y-95698511D01*
X81827735Y-95698511D02*
X81827735Y-95079464D01*
X75107083Y-36653330D02*
X75059464Y-36700950D01*
X75059464Y-36700950D02*
X74916607Y-36748569D01*
X74916607Y-36748569D02*
X74821369Y-36748569D01*
X74821369Y-36748569D02*
X74678512Y-36700950D01*
X74678512Y-36700950D02*
X74583274Y-36605711D01*
X74583274Y-36605711D02*
X74535655Y-36510473D01*
X74535655Y-36510473D02*
X74488036Y-36319997D01*
X74488036Y-36319997D02*
X74488036Y-36177140D01*
X74488036Y-36177140D02*
X74535655Y-35986664D01*
X74535655Y-35986664D02*
X74583274Y-35891426D01*
X74583274Y-35891426D02*
X74678512Y-35796188D01*
X74678512Y-35796188D02*
X74821369Y-35748569D01*
X74821369Y-35748569D02*
X74916607Y-35748569D01*
X74916607Y-35748569D02*
X75059464Y-35796188D01*
X75059464Y-35796188D02*
X75107083Y-35843807D01*
X75583274Y-36748569D02*
X75773750Y-36748569D01*
X75773750Y-36748569D02*
X75868988Y-36700950D01*
X75868988Y-36700950D02*
X75916607Y-36653330D01*
X75916607Y-36653330D02*
X76011845Y-36510473D01*
X76011845Y-36510473D02*
X76059464Y-36319997D01*
X76059464Y-36319997D02*
X76059464Y-35939045D01*
X76059464Y-35939045D02*
X76011845Y-35843807D01*
X76011845Y-35843807D02*
X75964226Y-35796188D01*
X75964226Y-35796188D02*
X75868988Y-35748569D01*
X75868988Y-35748569D02*
X75678512Y-35748569D01*
X75678512Y-35748569D02*
X75583274Y-35796188D01*
X75583274Y-35796188D02*
X75535655Y-35843807D01*
X75535655Y-35843807D02*
X75488036Y-35939045D01*
X75488036Y-35939045D02*
X75488036Y-36177140D01*
X75488036Y-36177140D02*
X75535655Y-36272378D01*
X75535655Y-36272378D02*
X75583274Y-36319997D01*
X75583274Y-36319997D02*
X75678512Y-36367616D01*
X75678512Y-36367616D02*
X75868988Y-36367616D01*
X75868988Y-36367616D02*
X75964226Y-36319997D01*
X75964226Y-36319997D02*
X76011845Y-36272378D01*
X76011845Y-36272378D02*
X76059464Y-36177140D01*
X82563392Y-52248569D02*
X82230059Y-51772378D01*
X81991964Y-52248569D02*
X81991964Y-51248569D01*
X81991964Y-51248569D02*
X82372916Y-51248569D01*
X82372916Y-51248569D02*
X82468154Y-51296188D01*
X82468154Y-51296188D02*
X82515773Y-51343807D01*
X82515773Y-51343807D02*
X82563392Y-51439045D01*
X82563392Y-51439045D02*
X82563392Y-51581902D01*
X82563392Y-51581902D02*
X82515773Y-51677140D01*
X82515773Y-51677140D02*
X82468154Y-51724759D01*
X82468154Y-51724759D02*
X82372916Y-51772378D01*
X82372916Y-51772378D02*
X81991964Y-51772378D01*
X83515773Y-52248569D02*
X82944345Y-52248569D01*
X83230059Y-52248569D02*
X83230059Y-51248569D01*
X83230059Y-51248569D02*
X83134821Y-51391426D01*
X83134821Y-51391426D02*
X83039583Y-51486664D01*
X83039583Y-51486664D02*
X82944345Y-51534283D01*
X83849107Y-51248569D02*
X84468154Y-51248569D01*
X84468154Y-51248569D02*
X84134821Y-51629521D01*
X84134821Y-51629521D02*
X84277678Y-51629521D01*
X84277678Y-51629521D02*
X84372916Y-51677140D01*
X84372916Y-51677140D02*
X84420535Y-51724759D01*
X84420535Y-51724759D02*
X84468154Y-51819997D01*
X84468154Y-51819997D02*
X84468154Y-52058092D01*
X84468154Y-52058092D02*
X84420535Y-52153330D01*
X84420535Y-52153330D02*
X84372916Y-52200950D01*
X84372916Y-52200950D02*
X84277678Y-52248569D01*
X84277678Y-52248569D02*
X83991964Y-52248569D01*
X83991964Y-52248569D02*
X83896726Y-52200950D01*
X83896726Y-52200950D02*
X83849107Y-52153330D01*
X74787813Y-69104206D02*
X73787813Y-69104206D01*
X73787813Y-69104206D02*
X73787813Y-68866111D01*
X73787813Y-68866111D02*
X73835432Y-68723254D01*
X73835432Y-68723254D02*
X73930670Y-68628016D01*
X73930670Y-68628016D02*
X74025908Y-68580397D01*
X74025908Y-68580397D02*
X74216384Y-68532778D01*
X74216384Y-68532778D02*
X74359241Y-68532778D01*
X74359241Y-68532778D02*
X74549717Y-68580397D01*
X74549717Y-68580397D02*
X74644955Y-68628016D01*
X74644955Y-68628016D02*
X74740194Y-68723254D01*
X74740194Y-68723254D02*
X74787813Y-68866111D01*
X74787813Y-68866111D02*
X74787813Y-69104206D01*
X74121146Y-67675635D02*
X74787813Y-67675635D01*
X73740194Y-67913730D02*
X74454479Y-68151825D01*
X74454479Y-68151825D02*
X74454479Y-67532778D01*
X60063392Y-59098569D02*
X59730059Y-58622378D01*
X59491964Y-59098569D02*
X59491964Y-58098569D01*
X59491964Y-58098569D02*
X59872916Y-58098569D01*
X59872916Y-58098569D02*
X59968154Y-58146188D01*
X59968154Y-58146188D02*
X60015773Y-58193807D01*
X60015773Y-58193807D02*
X60063392Y-58289045D01*
X60063392Y-58289045D02*
X60063392Y-58431902D01*
X60063392Y-58431902D02*
X60015773Y-58527140D01*
X60015773Y-58527140D02*
X59968154Y-58574759D01*
X59968154Y-58574759D02*
X59872916Y-58622378D01*
X59872916Y-58622378D02*
X59491964Y-58622378D01*
X61015773Y-59098569D02*
X60444345Y-59098569D01*
X60730059Y-59098569D02*
X60730059Y-58098569D01*
X60730059Y-58098569D02*
X60634821Y-58241426D01*
X60634821Y-58241426D02*
X60539583Y-58336664D01*
X60539583Y-58336664D02*
X60444345Y-58384283D01*
X61396726Y-58193807D02*
X61444345Y-58146188D01*
X61444345Y-58146188D02*
X61539583Y-58098569D01*
X61539583Y-58098569D02*
X61777678Y-58098569D01*
X61777678Y-58098569D02*
X61872916Y-58146188D01*
X61872916Y-58146188D02*
X61920535Y-58193807D01*
X61920535Y-58193807D02*
X61968154Y-58289045D01*
X61968154Y-58289045D02*
X61968154Y-58384283D01*
X61968154Y-58384283D02*
X61920535Y-58527140D01*
X61920535Y-58527140D02*
X61349107Y-59098569D01*
X61349107Y-59098569D02*
X61968154Y-59098569D01*
D12*
%TO.C,U6*%
G36*
X73515349Y-51484249D02*
G01*
X73261349Y-51484249D01*
X73261349Y-51103249D01*
X73515349Y-51103249D01*
X73515349Y-51484249D01*
G37*
D13*
X68580650Y-53919350D02*
X71831850Y-53919350D01*
X71831850Y-50668150D02*
X68580650Y-50668150D01*
%TO.C,U4*%
X98583250Y-47651950D02*
G75*
G02*
X98329250Y-47651950I-127000J0D01*
G01*
X98329250Y-47651950D02*
G75*
G02*
X98583250Y-47651950I127000J0D01*
G01*
X113334250Y-45120752D02*
X113334250Y-28866748D01*
X113334250Y-28866748D02*
X112784289Y-28866748D01*
X97078250Y-28866748D02*
X97078250Y-45120752D01*
X97078250Y-45120752D02*
X97628211Y-45120752D01*
X112784289Y-45120752D02*
X113334250Y-45120752D01*
X97628211Y-28866748D02*
X97078250Y-28866748D01*
D14*
%TO.C,D2*%
X53640000Y-46500000D02*
X53640000Y-48500000D01*
X53640000Y-46500000D02*
X57650000Y-46500000D01*
X53640000Y-48500000D02*
X57650000Y-48500000D01*
%TO.C,R10*%
X59539026Y-50271250D02*
X60048474Y-50271250D01*
X59539026Y-51316250D02*
X60048474Y-51316250D01*
%TO.C,R1*%
X120933314Y-53058750D02*
X120479186Y-53058750D01*
X120933314Y-54528750D02*
X120479186Y-54528750D01*
%TO.C,J5*%
X117306250Y-32908750D02*
X117946250Y-32908750D01*
X119466250Y-32908750D02*
X119466250Y-32278750D01*
X120056250Y-35628750D02*
X117356250Y-35628750D01*
X120106250Y-32908750D02*
X119466250Y-32908750D01*
%TO.C,D3*%
X54206250Y-54993750D02*
X54856250Y-54993750D01*
X54856250Y-54993750D02*
X54856250Y-54293750D01*
X53556250Y-53793750D02*
G75*
G02*
X53556250Y-51793750I400000J1000000D01*
G01*
%TO.C,R14*%
X98683750Y-71548474D02*
X98683750Y-71039026D01*
X99728750Y-71548474D02*
X99728750Y-71039026D01*
%TO.C,C11*%
X71822085Y-47433750D02*
X71590415Y-47433750D01*
X71822085Y-48153750D02*
X71590415Y-48153750D01*
%TO.C,J3*%
X50396250Y-33133750D02*
X50396250Y-35633750D01*
X50696250Y-33433750D02*
X50696250Y-41153750D01*
X50696250Y-41153750D02*
X54716250Y-41153750D01*
X52196250Y-33433750D02*
X52196250Y-34433750D01*
X52196250Y-34433750D02*
X50696250Y-34433750D01*
X52196250Y-40153750D02*
X50696250Y-40153750D01*
X52196250Y-41153750D02*
X52196250Y-40153750D01*
X52896250Y-33133750D02*
X50396250Y-33133750D01*
X53006250Y-33433750D02*
X53006250Y-33933750D01*
X53006250Y-33933750D02*
X54216250Y-33933750D01*
X53006250Y-40653750D02*
X53006250Y-41153750D01*
X54216250Y-33933750D02*
X54216250Y-40653750D01*
X54216250Y-40653750D02*
X53006250Y-40653750D01*
X54716250Y-33433750D02*
X50696250Y-33433750D01*
X54716250Y-41153750D02*
X54716250Y-33433750D01*
%TO.C,R6*%
X74683750Y-45626526D02*
X74683750Y-46135974D01*
X75728750Y-45626526D02*
X75728750Y-46135974D01*
%TO.C,FB1*%
X105306628Y-47733750D02*
X106105872Y-47733750D01*
X105306628Y-48853750D02*
X106105872Y-48853750D01*
%TO.C,C6*%
X101322085Y-50433750D02*
X101090415Y-50433750D01*
X101322085Y-51153750D02*
X101090415Y-51153750D01*
%TO.C,R7*%
X88364026Y-44771250D02*
X88873474Y-44771250D01*
X88364026Y-45816250D02*
X88873474Y-45816250D01*
%TO.C,R15*%
X98683750Y-66539026D02*
X98683750Y-67048474D01*
X99728750Y-66539026D02*
X99728750Y-67048474D01*
%TO.C,U8*%
X77296250Y-65443750D02*
X77296250Y-69203750D01*
X77296250Y-69203750D02*
X78556250Y-69203750D01*
X84116250Y-65443750D02*
X84116250Y-69203750D01*
X84116250Y-69203750D02*
X82856250Y-69203750D01*
X84346250Y-64403750D02*
X84016250Y-64163750D01*
X84346250Y-63923750D01*
X84346250Y-64403750D01*
G36*
X84346250Y-64403750D02*
G01*
X84016250Y-64163750D01*
X84346250Y-63923750D01*
X84346250Y-64403750D01*
G37*
%TO.C,SW3*%
X90956250Y-83793750D02*
X90956250Y-77793750D01*
X95506250Y-77693750D02*
X92906250Y-77693750D01*
X95506250Y-83893750D02*
X92906250Y-83893750D01*
X96506250Y-75693750D02*
X97506250Y-75693750D01*
X97456250Y-83693750D02*
X97456250Y-77893750D01*
X97506250Y-75693750D02*
X97506250Y-76693750D01*
%TO.C,C15*%
X62944998Y-39058750D02*
X63467502Y-39058750D01*
X62944998Y-40528750D02*
X63467502Y-40528750D01*
%TO.C,U1*%
X78096250Y-42183750D02*
X78571250Y-42183750D01*
X78096250Y-42658750D02*
X78096250Y-42183750D01*
X78096250Y-45928750D02*
X78096250Y-46403750D01*
X78096250Y-46403750D02*
X78571250Y-46403750D01*
X81841250Y-42183750D02*
X82076250Y-42183750D01*
X82316250Y-42658750D02*
X82316250Y-42483750D01*
X82316250Y-45928750D02*
X82316250Y-46403750D01*
X82316250Y-46403750D02*
X81841250Y-46403750D01*
X82646250Y-42423750D02*
X82316250Y-42183750D01*
X82646250Y-41943750D01*
X82646250Y-42423750D01*
G36*
X82646250Y-42423750D02*
G01*
X82316250Y-42183750D01*
X82646250Y-41943750D01*
X82646250Y-42423750D01*
G37*
%TO.C,C12*%
X79822085Y-48433750D02*
X79590415Y-48433750D01*
X79822085Y-49153750D02*
X79590415Y-49153750D01*
%TO.C,U5*%
X79716250Y-38068750D02*
X79716250Y-39118750D01*
X81696250Y-38068750D02*
X81696250Y-39368750D01*
X79716250Y-39768750D02*
X79436250Y-39488750D01*
X79716250Y-39488750D01*
X79716250Y-39768750D01*
G36*
X79716250Y-39768750D02*
G01*
X79436250Y-39488750D01*
X79716250Y-39488750D01*
X79716250Y-39768750D01*
G37*
%TO.C,C17*%
X81022915Y-60933750D02*
X81254585Y-60933750D01*
X81022915Y-61653750D02*
X81254585Y-61653750D01*
%TO.C,C7*%
X105254585Y-79433750D02*
X105022915Y-79433750D01*
X105254585Y-80153750D02*
X105022915Y-80153750D01*
%TO.C,C8*%
X105467502Y-76558750D02*
X104944998Y-76558750D01*
X105467502Y-78028750D02*
X104944998Y-78028750D01*
D15*
%TO.C,Q2*%
X60256250Y-69318750D02*
X64156250Y-69318750D01*
X64156250Y-64268750D02*
X60256250Y-64268750D01*
D10*
X58306250Y-64793750D02*
G75*
G02*
X58106250Y-64793750I-100000J0D01*
G01*
X58106250Y-64793750D02*
G75*
G02*
X58306250Y-64793750I100000J0D01*
G01*
D14*
%TO.C,Q1*%
X105046250Y-54453750D02*
X105046250Y-53043750D01*
X107366250Y-54443750D02*
X107366250Y-53043750D01*
X105096250Y-54823750D02*
X104766250Y-55063750D01*
X104766250Y-54583750D01*
X105096250Y-54823750D01*
G36*
X105096250Y-54823750D02*
G01*
X104766250Y-55063750D01*
X104766250Y-54583750D01*
X105096250Y-54823750D01*
G37*
%TO.C,C16*%
X75346250Y-63977085D02*
X75346250Y-63745415D01*
X76066250Y-63977085D02*
X76066250Y-63745415D01*
D11*
%TO.C,U2*%
X101956250Y-82543750D02*
X118456250Y-82543750D01*
X101956250Y-83293750D02*
X101956250Y-82543750D01*
X101956250Y-99293750D02*
X101956250Y-100043750D01*
X101956250Y-100043750D02*
X118456250Y-100043750D01*
X118456250Y-82543750D02*
X118456250Y-83293750D01*
X118456250Y-100043750D02*
X118456250Y-99293750D01*
D14*
X101656250Y-83293750D02*
X101156250Y-83293750D01*
X101656250Y-82793750D01*
X101656250Y-83293750D01*
G36*
X101656250Y-83293750D02*
G01*
X101156250Y-83293750D01*
X101656250Y-82793750D01*
X101656250Y-83293750D01*
G37*
%TO.C,J2*%
X49896250Y-63133750D02*
X49896250Y-65633750D01*
X50196250Y-63433750D02*
X50196250Y-71153750D01*
X50196250Y-71153750D02*
X54216250Y-71153750D01*
X51696250Y-63433750D02*
X51696250Y-64433750D01*
X51696250Y-64433750D02*
X50196250Y-64433750D01*
X51696250Y-70153750D02*
X50196250Y-70153750D01*
X51696250Y-71153750D02*
X51696250Y-70153750D01*
X52396250Y-63133750D02*
X49896250Y-63133750D01*
X52506250Y-63433750D02*
X52506250Y-63933750D01*
X52506250Y-63933750D02*
X53716250Y-63933750D01*
X52506250Y-70653750D02*
X52506250Y-71153750D01*
X53716250Y-63933750D02*
X53716250Y-70653750D01*
X53716250Y-70653750D02*
X52506250Y-70653750D01*
X54216250Y-63433750D02*
X50196250Y-63433750D01*
X54216250Y-71153750D02*
X54216250Y-63433750D01*
%TO.C,R11*%
X59539026Y-56271250D02*
X60048474Y-56271250D01*
X59539026Y-57316250D02*
X60048474Y-57316250D01*
%TO.C,R2*%
X109183750Y-50048474D02*
X109183750Y-49539026D01*
X110228750Y-50048474D02*
X110228750Y-49539026D01*
%TO.C,SW4*%
X115906250Y-52393750D02*
X115906250Y-51393750D01*
X115956250Y-44393750D02*
X115956250Y-50193750D01*
X116906250Y-52393750D02*
X115906250Y-52393750D01*
X117906250Y-44193750D02*
X120506250Y-44193750D01*
X117906250Y-50393750D02*
X120506250Y-50393750D01*
X122456250Y-44293750D02*
X122456250Y-50293750D01*
%TO.C,C1*%
X97467502Y-88058750D02*
X96944998Y-88058750D01*
X97467502Y-89528750D02*
X96944998Y-89528750D01*
%TO.C,C2*%
X97322085Y-91933750D02*
X97090415Y-91933750D01*
X97322085Y-92653750D02*
X97090415Y-92653750D01*
%TO.C,C5*%
X100967502Y-47558750D02*
X100444998Y-47558750D01*
X100967502Y-49028750D02*
X100444998Y-49028750D01*
%TO.C,R4*%
X86460974Y-35771250D02*
X85951526Y-35771250D01*
X86460974Y-36816250D02*
X85951526Y-36816250D01*
%TO.C,C3*%
X117322085Y-53433750D02*
X117090415Y-53433750D01*
X117322085Y-54153750D02*
X117090415Y-54153750D01*
%TO.C,D1*%
X53640000Y-43500000D02*
X53640000Y-45500000D01*
X53640000Y-43500000D02*
X57650000Y-43500000D01*
X53640000Y-45500000D02*
X57650000Y-45500000D01*
%TO.C,R3*%
X112183750Y-50048474D02*
X112183750Y-49539026D01*
X113228750Y-50048474D02*
X113228750Y-49539026D01*
%TO.C,U7*%
X54586250Y-26468750D02*
X54586250Y-31109750D01*
X54586250Y-26468750D02*
X64826250Y-26468750D01*
X54586250Y-27978750D02*
X64826250Y-27978750D01*
X54586250Y-31109750D02*
X64826250Y-31109750D01*
X57856250Y-26468750D02*
X57856250Y-27978750D01*
X61557250Y-26468750D02*
X61557250Y-27978750D01*
X64826250Y-26468750D02*
X64826250Y-31109750D01*
%TO.C,C4*%
X86136963Y-67508847D02*
X86136963Y-66986343D01*
X87606963Y-67508847D02*
X87606963Y-66986343D01*
%TO.C,U3*%
X104891250Y-56828750D02*
X104891250Y-57828750D01*
X104891250Y-75068750D02*
X104891250Y-74068750D01*
X105671250Y-56828750D02*
X104891250Y-56828750D01*
X105671250Y-75068750D02*
X104891250Y-75068750D01*
X130631250Y-56828750D02*
X124471250Y-56828750D01*
X130631250Y-56828750D02*
X130631250Y-75068750D01*
X130631250Y-75068750D02*
X124216250Y-75068750D01*
X124246250Y-56823750D02*
X123746250Y-56823750D01*
X123746250Y-56323750D01*
X124246250Y-56823750D01*
G36*
X124246250Y-56823750D02*
G01*
X123746250Y-56823750D01*
X123746250Y-56323750D01*
X124246250Y-56823750D01*
G37*
%TO.C,R9*%
X59539026Y-53271250D02*
X60048474Y-53271250D01*
X59539026Y-54316250D02*
X60048474Y-54316250D01*
%TO.C,C10*%
X75389585Y-38933750D02*
X75157915Y-38933750D01*
X75389585Y-39653750D02*
X75157915Y-39653750D01*
%TO.C,C13*%
X56846250Y-37177915D02*
X56846250Y-37409585D01*
X57566250Y-37177915D02*
X57566250Y-37409585D01*
%TO.C,R5*%
X85951526Y-37771250D02*
X86460974Y-37771250D01*
X85951526Y-38816250D02*
X86460974Y-38816250D01*
%TO.C,R8*%
X88451526Y-47771250D02*
X88960974Y-47771250D01*
X88451526Y-48816250D02*
X88960974Y-48816250D01*
%TO.C,J1*%
X76986250Y-27643750D02*
X76986250Y-24913750D01*
X76986250Y-31243750D02*
X76986250Y-30343750D01*
X86056250Y-34323750D02*
X77106250Y-34323750D01*
X86176250Y-24913750D02*
X76986250Y-24913750D01*
X86176250Y-27643750D02*
X86176250Y-24913750D01*
X86176250Y-31243750D02*
X86176250Y-30343750D01*
%TO.C,J4*%
X59626250Y-96453750D02*
X59626250Y-97193750D01*
X59626250Y-97193750D02*
X60126250Y-97193750D01*
X59866250Y-87032750D02*
X59866250Y-96953750D01*
X59866250Y-87032750D02*
X80306250Y-87032750D01*
X59866250Y-89992750D02*
X80306250Y-89992750D01*
X59866250Y-94893750D02*
X80306250Y-94893750D01*
X59866250Y-96393750D02*
X80306250Y-96393750D01*
X59866250Y-96953750D02*
X80306250Y-96953750D01*
X66319250Y-93316750D02*
X66272250Y-93362750D01*
X66512250Y-93532750D02*
X66477250Y-93567750D01*
X68616250Y-91018750D02*
X68581250Y-91054750D01*
X68821250Y-91224750D02*
X68774250Y-91270750D01*
X71399250Y-93316750D02*
X71352250Y-93362750D01*
X71592250Y-93532750D02*
X71557250Y-93567750D01*
X73696250Y-91018750D02*
X73661250Y-91054750D01*
X73901250Y-91224750D02*
X73854250Y-91270750D01*
X76479250Y-93316750D02*
X76432250Y-93362750D01*
X76672250Y-93532750D02*
X76637250Y-93567750D01*
X78776250Y-91018750D02*
X78741250Y-91054750D01*
X78981250Y-91224750D02*
X78934250Y-91270750D01*
X80306250Y-87032750D02*
X80306250Y-96953750D01*
X60930823Y-92976792D02*
G75*
G02*
X60931250Y-91609750I1535420J683041D01*
G01*
X61783208Y-90758323D02*
G75*
G02*
X63150250Y-90758750I683041J-1535420D01*
G01*
X62495055Y-93974003D02*
G75*
G02*
X61782250Y-93828750I-28806J1680254D01*
G01*
X63149568Y-93828506D02*
G75*
G02*
X62466250Y-93973750I-683318J1534756D01*
G01*
X64001677Y-91610708D02*
G75*
G02*
X64001250Y-92977750I-1535427J-683042D01*
G01*
X69226250Y-92293750D02*
G75*
G02*
X65866250Y-92293750I-1680000J0D01*
G01*
X65866250Y-92293750D02*
G75*
G02*
X69226250Y-92293750I1680000J0D01*
G01*
X74306250Y-92293750D02*
G75*
G02*
X70946250Y-92293750I-1680000J0D01*
G01*
X70946250Y-92293750D02*
G75*
G02*
X74306250Y-92293750I1680000J0D01*
G01*
X79386250Y-92293750D02*
G75*
G02*
X76026250Y-92293750I-1680000J0D01*
G01*
X76026250Y-92293750D02*
G75*
G02*
X79386250Y-92293750I1680000J0D01*
G01*
%TO.C,C9*%
X75389585Y-37433750D02*
X75157915Y-37433750D01*
X75389585Y-38153750D02*
X75157915Y-38153750D01*
%TO.C,R13*%
X79479186Y-51058750D02*
X79933314Y-51058750D01*
X79479186Y-52528750D02*
X79933314Y-52528750D01*
D16*
%TO.C,D4*%
X75756250Y-66433750D02*
G75*
G02*
X75656250Y-66433750I-50000J0D01*
G01*
X75656250Y-66433750D02*
G75*
G02*
X75756250Y-66433750I50000J0D01*
G01*
D14*
%TO.C,R12*%
X60479186Y-59558750D02*
X60933314Y-59558750D01*
X60479186Y-61028750D02*
X60933314Y-61028750D01*
%TD*%
M02*
